<svg xmlns="http://www.w3.org/2000/svg" xmlns:xlink="http://www.w3.org/1999/xlink" width="1080" zoomAndPan="magnify" viewBox="0 0 810 1012.49997" height="1350" preserveAspectRatio="xMidYMid meet" version="1.0"><defs><clipPath id="14c2e9c03b"><path d="M 76.242188 163.929688 L 733.667969 163.929688 L 733.667969 953.710938 L 76.242188 953.710938 Z M 76.242188 163.929688 " clip-rule="nonzero"/></clipPath><clipPath id="cd2ad545ea"><path d="M 183 58.203125 L 619 58.203125 L 619 249 L 183 249 Z M 183 58.203125 " clip-rule="nonzero"/></clipPath></defs><g clip-path="url(#14c2e9c03b)"><path fill="#ffffff" d="M 117.738281 183.148438 C 105.417969 183.148438 95.394531 193.171875 95.394531 205.488281 L 95.394531 912.21875 C 95.394531 924.535156 105.417969 934.5625 117.738281 934.5625 L 692.261719 934.5625 C 704.582031 934.5625 714.605469 924.535156 714.605469 912.21875 L 714.605469 205.488281 C 714.605469 193.171875 704.582031 183.148438 692.261719 183.148438 L 618.464844 183.148438 L 618.464844 214.621094 C 618.464844 233.519531 603.089844 248.898438 584.191406 248.898438 L 217.644531 248.898438 C 198.742188 248.898438 183.363281 233.515625 183.363281 214.617188 L 183.363281 183.148438 Z M 692.261719 953.710938 L 117.738281 953.710938 C 94.859375 953.710938 76.242188 935.097656 76.242188 912.21875 L 76.242188 205.488281 C 76.242188 182.609375 94.859375 163.996094 117.738281 163.996094 L 202.511719 163.996094 L 202.511719 214.617188 C 202.511719 222.957031 209.300781 229.746094 217.644531 229.746094 L 584.191406 229.746094 C 592.527344 229.746094 599.316406 222.957031 599.316406 214.621094 L 599.316406 163.996094 L 692.261719 163.996094 C 715.144531 163.996094 733.757812 182.609375 733.757812 205.488281 L 733.757812 912.21875 C 733.757812 935.097656 715.144531 953.710938 692.261719 953.710938 " fill-opacity="1" fill-rule="nonzero"/></g><g clip-path="url(#cd2ad545ea)"><path fill="#ffffff" d="M 217.640625 133.992188 C 209.296875 133.992188 202.511719 140.777344 202.511719 149.121094 L 202.511719 214.621094 C 202.511719 222.960938 209.296875 229.742188 217.640625 229.742188 L 584.191406 229.742188 C 592.53125 229.742188 599.3125 222.960938 599.3125 214.613281 L 599.3125 149.121094 C 599.3125 140.777344 592.53125 133.992188 584.191406 133.992188 L 501.601562 133.992188 C 486.304688 133.992188 472.34375 125.035156 465.175781 110.613281 C 455.164062 90.457031 431.769531 77.433594 405.574219 77.433594 C 379.378906 77.433594 355.980469 90.457031 345.96875 110.613281 C 338.808594 125.035156 324.851562 133.992188 309.546875 133.992188 Z M 584.191406 248.894531 L 217.640625 248.894531 C 198.738281 248.894531 183.363281 233.523438 183.363281 214.621094 L 183.363281 149.121094 C 183.363281 130.21875 198.738281 114.84375 217.640625 114.84375 L 309.546875 114.84375 C 317.53125 114.84375 324.914062 109.953125 328.820312 102.09375 C 342.039062 75.476562 372.167969 58.28125 405.574219 58.28125 C 438.980469 58.28125 469.109375 75.476562 482.332031 102.09375 C 486.234375 109.953125 493.625 114.84375 501.601562 114.84375 L 584.191406 114.84375 C 603.09375 114.84375 618.464844 130.21875 618.464844 149.121094 L 618.464844 214.613281 C 618.464844 233.519531 603.09375 248.894531 584.191406 248.894531 " fill-opacity="1" fill-rule="nonzero"/></g><path fill="#ffffff" d="M 421.085938 163.484375 C 421.085938 172.371094 413.882812 179.574219 405 179.574219 C 396.113281 179.574219 388.910156 172.371094 388.910156 163.484375 C 388.910156 154.601562 396.113281 147.398438 405 147.398438 C 413.882812 147.398438 421.085938 154.601562 421.085938 163.484375 " fill-opacity="1" fill-rule="nonzero"/><path fill="#ffffff" d="M 607.992188 405.589844 L 440.226562 405.589844 C 431.414062 405.589844 424.269531 398.449219 424.269531 389.632812 C 424.269531 380.820312 431.414062 373.675781 440.226562 373.675781 L 607.992188 373.675781 C 616.808594 373.675781 623.949219 380.820312 623.949219 389.632812 C 623.949219 398.449219 616.808594 405.589844 607.992188 405.589844 " fill-opacity="1" fill-rule="nonzero"/><path fill="#ffffff" d="M 607.996094 578.164062 L 440.226562 578.164062 C 431.414062 578.164062 424.269531 571.019531 424.269531 562.203125 C 424.269531 553.386719 431.414062 546.246094 440.226562 546.246094 L 607.996094 546.246094 C 616.808594 546.246094 623.953125 553.386719 623.953125 562.203125 C 623.953125 571.019531 616.808594 578.164062 607.996094 578.164062 " fill-opacity="1" fill-rule="nonzero"/><path fill="#ffffff" d="M 233.835938 408.875 C 237.019531 413.65625 240.460938 418.183594 244.0625 422.542969 C 247.648438 426.925781 251.691406 430.847656 255.945312 434.558594 L 257.808594 436.183594 L 258.605469 436.824219 C 264.796875 441.453125 273.5625 440.179688 278.1875 433.988281 C 284.484375 425.558594 290.125 416.542969 296.621094 408.296875 C 302.957031 399.910156 309.421875 391.636719 315.570312 383.082031 C 321.835938 374.628906 327.957031 366.046875 334.015625 357.402344 C 340.109375 348.800781 346.222656 340.207031 352.09375 331.398438 C 352.453125 330.855469 352.433594 330.117188 352 329.589844 C 351.464844 328.941406 350.507812 328.851562 349.863281 329.386719 C 341.699219 336.128906 333.785156 343.089844 325.847656 350.039062 C 317.875 356.949219 309.964844 363.917969 302.199219 371.019531 C 294.320312 378.015625 286.757812 385.296875 279.0625 392.460938 C 275.386719 396.027344 271.5 399.402344 267.589844 402.757812 C 266.925781 402.175781 266.316406 401.539062 265.628906 400.976562 C 261.265625 397.375 256.738281 393.9375 251.960938 390.753906 C 247.183594 387.558594 242.246094 384.53125 236.941406 381.871094 C 231.71875 379.128906 226.175781 376.707031 220.066406 374.855469 C 219.753906 374.761719 219.410156 374.753906 219.074219 374.855469 C 218.175781 375.128906 217.667969 376.078125 217.9375 376.980469 C 219.792969 383.089844 222.214844 388.632812 224.957031 393.859375 C 227.617188 399.164062 230.648438 404.097656 233.835938 408.875 " fill-opacity="1" fill-rule="nonzero"/><path fill="#ffffff" d="M 349.863281 501.957031 C 341.699219 508.699219 333.785156 515.664062 325.847656 522.609375 C 317.875 529.519531 309.964844 536.492188 302.199219 543.59375 C 294.320312 550.585938 286.757812 557.867188 279.0625 565.03125 C 275.386719 568.597656 271.5 571.976562 267.589844 575.328125 C 266.925781 574.746094 266.316406 574.109375 265.632812 573.546875 C 261.265625 569.945312 256.738281 566.507812 251.960938 563.324219 C 247.183594 560.136719 242.246094 557.105469 236.945312 554.445312 C 231.71875 551.703125 226.179688 549.277344 220.066406 547.425781 C 219.753906 547.328125 219.410156 547.324219 219.074219 547.425781 C 218.175781 547.699219 217.667969 548.652344 217.9375 549.550781 C 219.792969 555.664062 222.214844 561.207031 224.957031 566.429688 C 227.621094 571.734375 230.648438 576.667969 233.835938 581.445312 C 237.023438 586.226562 240.460938 590.753906 244.0625 595.117188 C 247.648438 599.5 251.691406 603.421875 255.945312 607.128906 L 257.808594 608.753906 L 258.605469 609.394531 C 264.796875 614.023438 273.5625 612.75 278.1875 606.558594 C 284.484375 598.132812 290.125 589.113281 296.621094 580.871094 C 302.957031 572.480469 309.421875 564.210938 315.574219 555.652344 C 321.835938 547.199219 327.957031 538.617188 334.015625 529.972656 C 340.109375 521.367188 346.222656 512.78125 352.09375 503.96875 C 352.457031 503.425781 352.433594 502.6875 352 502.160156 C 351.464844 501.511719 350.507812 501.421875 349.863281 501.957031 " fill-opacity="1" fill-rule="nonzero"/><path fill="#ffffff" d="M 349.863281 674.527344 C 341.699219 681.273438 333.785156 688.234375 325.847656 695.183594 C 317.875 702.09375 309.964844 709.066406 302.199219 716.164062 C 294.320312 723.160156 286.757812 730.441406 279.0625 737.605469 C 275.386719 741.167969 271.5 744.546875 267.589844 747.902344 C 266.925781 747.320312 266.316406 746.679688 265.628906 746.121094 C 261.265625 742.519531 256.738281 739.082031 251.960938 735.894531 C 247.183594 732.707031 242.246094 729.675781 236.945312 727.015625 C 231.71875 724.273438 226.175781 721.851562 220.066406 720 C 219.753906 719.902344 219.410156 719.898438 219.074219 720 C 218.175781 720.273438 217.667969 721.222656 217.9375 722.125 C 219.792969 728.238281 222.214844 733.777344 224.957031 739.003906 C 227.617188 744.304688 230.648438 749.246094 233.835938 754.019531 C 237.019531 758.800781 240.460938 763.324219 244.0625 767.691406 C 247.648438 772.070312 251.691406 775.996094 255.945312 779.703125 L 257.808594 781.328125 L 258.605469 781.96875 C 264.796875 786.59375 273.5625 785.320312 278.1875 779.132812 C 284.484375 770.703125 290.125 761.6875 296.621094 753.445312 C 302.957031 745.054688 309.421875 736.785156 315.574219 728.226562 C 321.835938 719.773438 327.957031 711.191406 334.015625 702.546875 C 340.109375 693.941406 346.222656 685.351562 352.09375 676.542969 C 352.453125 676 352.433594 675.261719 352 674.734375 C 351.464844 674.089844 350.507812 673.996094 349.863281 674.527344 " fill-opacity="1" fill-rule="nonzero"/><path fill="#ffffff" d="M 607.996094 750.738281 L 440.226562 750.738281 C 431.414062 750.738281 424.269531 743.59375 424.269531 734.78125 C 424.269531 725.964844 431.414062 718.820312 440.226562 718.820312 L 607.996094 718.820312 C 616.808594 718.820312 623.953125 725.964844 623.953125 734.78125 C 623.953125 743.59375 616.808594 750.738281 607.996094 750.738281 " fill-opacity="1" fill-rule="nonzero"/></svg>