<svg xmlns="http://www.w3.org/2000/svg" viewBox="0 0 500 500"><g id="freepik--character-9--inject-33"><path d="M409.43,109.44c-10.43-1.77-21.15,2.36-26.86,11.27-.39.62-.76,1.25-1.08,1.89C378.27,129,377,134,378,135.9s0,5.67-1.61,7.92-6,5.94-4.41,7.55,6.3,2.87,6.3,2.87-.93,11.76,1,12.4,12.21-1.28,12.21-1.28l5.15,11.25L425.21,167l-3.54-9.64s7.07-10,8.36-21.86-.46-17.38-11.57-23.14A31.36,31.36,0,0,0,409.43,109.44Z" style="fill:#fff"></path><path d="M396.6,177.11a.52.52,0,0,1-.46-.29l-5-10.9c-2.08.38-10.23,1.81-12.08,1.2s-1.65-8.67-1.37-12.51c-1.2-.35-4.71-1.47-6.12-2.88s.71-4,2.67-6.2a25.91,25.91,0,0,0,1.68-2c1.46-2.05,2.44-5.65,1.57-7.4-1.06-2.13.22-7.14,3.53-13.75a20.36,20.36,0,0,1,1.11-1.94c5.67-8.85,16.4-13.36,27.36-11.49a31.94,31.94,0,0,1,9.18,2.92c11.66,6,13.08,12.18,11.84,23.64-1.18,10.92-7.26,20.34-8.3,21.88l3.45,9.4a.53.53,0,0,1,0,.39.5.5,0,0,1-.29.26l-28.61,9.64A.45.45,0,0,1,396.6,177.11Zm-5.15-12.25a.5.5,0,0,1,.46.29l5,10.84,27.69-9.34-3.36-9.16a.54.54,0,0,1,.06-.46c.07-.1,7-10,8.27-21.62,1.21-11.21-.09-16.84-11.3-22.65a30.85,30.85,0,0,0-8.89-2.83h0c-10.56-1.79-20.9,2.54-26.35,11a18.39,18.39,0,0,0-1.05,1.85c-3.68,7.34-4.24,11.45-3.54,12.85,1.08,2.15,0,6.1-1.65,8.43a26.58,26.58,0,0,1-1.75,2.08c-1.5,1.68-3.55,4-2.71,4.83,1.5,1.49,6,2.72,6.08,2.73a.52.52,0,0,1,.37.53c-.48,6.06-.17,11.61.66,11.89,1.32.44,7.88-.54,12-1.3Z" style="fill:#263238"></path><path d="M384.52,142.68h-3.18a.5.5,0,0,1,0-1H383L381,140.27a.5.5,0,0,1,.59-.81l3.18,2.32a.49.49,0,0,1,.19.55A.5.5,0,0,1,384.52,142.68Z" style="fill:#263238"></path><path d="M381.63,159.76a.5.5,0,0,1-.24-.06L378.2,158a.5.5,0,0,1-.2-.68.49.49,0,0,1,.68-.19l3.19,1.73a.49.49,0,0,1,.19.68A.47.47,0,0,1,381.63,159.76Z" style="fill:#263238"></path><path d="M384.52,138.92a.5.5,0,0,1-.37-.17c-2-2.27-4-1.37-4-1.33a.51.51,0,0,1-.67-.23.5.5,0,0,1,.23-.67s2.68-1.29,5.23,1.56a.51.51,0,0,1-.38.84Z" style="fill:#263238"></path><path d="M392.77,123.86c-3,3.82-5.48,8.43-3.64,10,2.29,2,8.31,1.72,8.31,4.58s-2.87,5.16-.58,5.16,8.31-2.58,10.32-1.72,2.86,8.59,2.29,10,8,5.73,10.6,5.73,9.45-7.45,12.32-14.33-1.72-22.06-4-22.35-4.87,3.15-11.46,2.58c-4.42-.38-8.35-3.48-12.59-4.77C398.75,117.11,396.09,119.66,392.77,123.86Z" style="fill:#fff"></path><path d="M420.07,158.18c-2.31,0-9.52-3.36-10.87-5.35a1.12,1.12,0,0,1-.19-1.07c.52-1.33-.4-8.68-2-9.38-1-.45-3.76.29-5.94.89a20.1,20.1,0,0,1-4.18.87,1.37,1.37,0,0,1-1.24-.5c-.35-.54,0-1.23.4-2.1a7.27,7.27,0,0,0,.92-3.06c0-1.32-1.92-1.85-3.94-2.42a11,11,0,0,1-4.2-1.79c-2.7-2.36,2.05-8.8,3.57-10.72h0c3.33-4.2,6.15-7,12.1-5.22a35,35,0,0,1,5,2.15c2.4,1.17,4.88,2.38,7.44,2.6a14.78,14.78,0,0,0,8.28-1.67,6,6,0,0,1,3.2-.9c.57.07,1.14.61,1.74,1.66,2.32,4,5.16,15.41,2.67,21.37C430.06,150.24,423.13,158.18,420.07,158.18Zm-14-16.94a3.26,3.26,0,0,1,1.28.22c2.35,1,3.21,9,2.56,10.67.11,1.06,7.55,5.05,10.14,5.05,2.16,0,9-7.07,11.86-14,2.28-5.47-.33-16.56-2.61-20.49-.52-.89-.88-1.15-1-1.17a5.56,5.56,0,0,0-2.66.81,15.71,15.71,0,0,1-8.78,1.77c-2.75-.24-5.32-1.49-7.8-2.7a34.18,34.18,0,0,0-4.9-2.09c-5.36-1.64-7.84.87-11,4.88-3.47,4.38-5,8.22-3.7,9.35a10.57,10.57,0,0,0,3.81,1.58c2.29.64,4.67,1.31,4.67,3.38a8.2,8.2,0,0,1-1,3.49,5.09,5.09,0,0,0-.45,1.14s.14,0,.39,0a19.63,19.63,0,0,0,3.92-.84A23.32,23.32,0,0,1,406.09,141.24Zm-9.61,1.89h0Z" style="fill:#263238"></path><polygon points="381.06 246.21 354.82 267.67 359.75 279.16 379.45 268.76 381.06 246.21" style="fill:#fff"></polygon><path d="M359.75,279.66a.47.47,0,0,1-.17,0,.5.5,0,0,1-.29-.28l-4.93-11.49a.48.48,0,0,1,.15-.58l26.23-21.46a.5.5,0,0,1,.55-.06.52.52,0,0,1,.27.48L380,268.79a.52.52,0,0,1-.27.41L360,279.6A.46.46,0,0,1,359.75,279.66Zm-4.32-11.85L360,278.46l19-10,1.51-21.12Z" style="fill:#263238"></path><path d="M354.82,267.66s-9.31,1.17-11.16,2.55-7.85,11.08-7.85,11.08a12.73,12.73,0,0,0,1.39,2.77l1.84,2.77,7.85,4.16,8.77-4.62,4.09-7.21Z" style="fill:#fff"></path><path d="M346.89,291.49a.46.46,0,0,1-.23-.06l-7.85-4.15a.42.42,0,0,1-.18-.17l-1.85-2.77a13.23,13.23,0,0,1-1.44-2.89.48.48,0,0,1,.05-.42c.24-.4,6.07-9.79,8-11.22s10.43-2.52,11.4-2.64a.49.49,0,0,1,.52.3L360.21,279a.49.49,0,0,1,0,.44l-4.08,7.22a.64.64,0,0,1-.2.2l-8.78,4.61A.46.46,0,0,1,346.89,291.49Zm-7.5-5,7.5,4L355.3,286l3.89-6.87-4.68-10.92c-2.8.37-9.19,1.38-10.55,2.4s-5.84,7.92-7.6,10.74a13.69,13.69,0,0,0,1.25,2.44Z" style="fill:#263238"></path><path d="M340.89,275.29l1.38,9.24,3.24,1.38v-6a51.49,51.49,0,0,0,7.38-4.16" style="fill:#fff"></path><path d="M345.51,286.41a.45.45,0,0,1-.2,0L342.08,285a.52.52,0,0,1-.3-.39l-1.38-9.23a.49.49,0,0,1,.41-.57.5.5,0,0,1,.57.42l1.35,9,2.28,1v-5.24a.51.51,0,0,1,.3-.46,51.08,51.08,0,0,0,7.31-4.11.5.5,0,0,1,.55.83,53.83,53.83,0,0,1-7.16,4.06v5.68a.5.5,0,0,1-.23.42A.53.53,0,0,1,345.51,286.41Z" style="fill:#263238"></path><polyline points="364.19 403.56 363.53 389.05 380.13 309.92 375.07 278.61 421.58 279.7 447.3 273.68 451.69 309.46 457.87 340.23" style="fill:#fff"></polyline><path d="M364.19,404.06a.5.5,0,0,1-.5-.48L363,389.07a.57.57,0,0,1,0-.13l16.58-79-5-31.22a.47.47,0,0,1,.11-.41.54.54,0,0,1,.39-.17l46.45,1.09,25.66-6a.47.47,0,0,1,.4.07.56.56,0,0,1,.21.35l4.39,35.78,6.17,30.73a.51.51,0,0,1-.4.59.5.5,0,0,1-.58-.4l-6.18-30.76-4.33-35.26-25.17,5.89h-.13l-45.91-1.08,5,30.72a.55.55,0,0,1,0,.18L364,389.09l.66,14.45a.51.51,0,0,1-.48.52Z" style="fill:#263238"></path><polyline points="415.64 365.3 422.24 344.84 427.52 356.72" style="fill:#fff"></polyline><path d="M415.64,365.79a.39.39,0,0,1-.15,0,.5.5,0,0,1-.32-.63l6.6-20.45a.51.51,0,0,1,.45-.35.5.5,0,0,1,.48.3L428,356.52a.5.5,0,1,1-.92.4l-4.74-10.68-6.2,19.21A.5.5,0,0,1,415.64,365.79Z" style="fill:#263238"></path><line x1="422.24" y1="344.84" x2="428.84" y2="330.99" style="fill:#fff"></line><path d="M422.24,345.34a.41.41,0,0,1-.21,0,.49.49,0,0,1-.24-.66l6.6-13.85a.5.5,0,0,1,.9.42l-6.6,13.86A.48.48,0,0,1,422.24,345.34Z" style="fill:#263238"></path><path d="M392.58,179l-7.11,2.73-.55,9.85,4.92-.55s-6,25.72-6.56,27.36-12,58.56-11.49,61.84,5.47,4.38,15.87,8.21,44.87-1.1,51.43-3.28,11-12.59,11-14.78-4.93-66.21-6-72.23-9.65-26.8-14.23-29S392.58,179,392.58,179Z" style="fill:#fff"></path><path d="M399.94,290.37c-5.18,0-9.65-.41-12.46-1.44q-2.72-1-5-1.78c-7.15-2.54-10.74-3.82-11.24-6.82-.61-3.68,11.37-61.64,11.51-62.07.49-1.46,5.43-22.52,6.4-26.63l-4.22.47a.49.49,0,0,1-.4-.14.48.48,0,0,1-.16-.39l.55-9.85a.51.51,0,0,1,.32-.44l7.11-2.73h0c3.36-1.25,33-12.06,37.6-9.84,4.82,2.32,13.38,23.23,14.5,29.37s6,69.79,6,72.32c0,2.3-4.37,13-11.29,15.25C434.79,287.14,414.55,290.37,399.94,290.37Zm-10.1-99.82a.5.5,0,0,1,.38.17.49.49,0,0,1,.11.45c-.24,1.05-6,25.76-6.58,27.4-.14.44-12,58.25-11.47,61.6.4,2.42,3.81,3.63,10.59,6,1.49.53,3.14,1.12,5,1.79,10.1,3.72,44.05-.93,51.11-3.29,6.34-2.11,10.6-12.45,10.6-14.3,0-.39-4.81-65.53-6-72.14-1.17-6.44-9.81-26.65-14-28.64-3.6-1.74-27.79,6.53-36.81,9.86L386,182.1l-.5,8.94,4.34-.48Z" style="fill:#263238"></path><polygon points="389.85 176.61 390.17 187.54 431.9 170.6 425.42 162.07 389.85 176.61" style="fill:#fff"></polygon><path d="M390.17,188a.5.5,0,0,1-.27-.08.49.49,0,0,1-.23-.41l-.32-10.93a.48.48,0,0,1,.31-.47l35.57-14.54a.5.5,0,0,1,.59.16l6.48,8.52a.53.53,0,0,1,.08.44.5.5,0,0,1-.29.33L390.36,188A.43.43,0,0,1,390.17,188Zm.19-11.1.29,9.86,40.46-16.42-5.86-7.7Z" style="fill:#263238"></path><path d="M402.71,144.14s6.1-10,10.93-4.18.32,11.9-3.22,13.5a15.46,15.46,0,0,1-7.71,1" style="fill:#fff"></path><path d="M404.77,155.06a15.31,15.31,0,0,1-2.14-.14.51.51,0,0,1-.42-.57.49.49,0,0,1,.57-.42,15,15,0,0,0,7.43-.92,9.39,9.39,0,0,0,4.84-6.06,7.54,7.54,0,0,0-1.8-6.67,3.8,3.8,0,0,0-3.23-1.62c-3.48.26-6.85,5.69-6.89,5.74a.5.5,0,0,1-.69.17.51.51,0,0,1-.16-.69c.15-.24,3.67-5.92,7.67-6.21a4.73,4.73,0,0,1,4.07,2,8.53,8.53,0,0,1,2,7.53,10.37,10.37,0,0,1-5.4,6.75A14.5,14.5,0,0,1,404.77,155.06Z" style="fill:#263238"></path><path d="M422.6,305,417,311.3l-3.12,14.41,4.58,2.44,2.1-1.41s4.92,2.1,6,1,5.62-2.83,5.62-2.83l3.13-8.79-1.43-11.23Z" style="fill:#fff"></path><path d="M418.45,328.65a.48.48,0,0,1-.24-.06l-4.57-2.44a.52.52,0,0,1-.26-.55l3.13-14.41a.45.45,0,0,1,.11-.23l5.6-6.33a.5.5,0,0,1,.38-.17l11.24,0h0a.49.49,0,0,1,.49.43l1.44,11.24a.45.45,0,0,1,0,.23l-3.13,8.79a.51.51,0,0,1-.29.3c-1.24.48-4.64,1.91-5.44,2.71-1.13,1.13-4.82-.22-6.27-.82l-1.89,1.26A.53.53,0,0,1,418.45,328.65Zm2.1-2.41a.41.41,0,0,1,.19,0c2.23,1,4.95,1.63,5.43,1.15,1-1,4.58-2.47,5.57-2.86l3-8.46-1.36-10.68-10.58,0-5.37,6.07-3,13.91,4,2.13,1.85-1.24A.47.47,0,0,1,420.55,326.24Z" style="fill:#263238"></path><path d="M401.46,188.4s-5.54,8.93-3,16.15,28.4,45.66,28.4,45.66l-6,55L437,306.44l15.61-60.7-21.5-55.66" style="fill:#fff"></path><path d="M437,306.94h0l-16.12-1.24a.5.5,0,0,1-.34-.18.53.53,0,0,1-.12-.38l6-54.8c-2-3-25.86-38.58-28.35-45.62-2.62-7.36,2.79-16.21,3-16.58a.5.5,0,0,1,.69-.17.51.51,0,0,1,.16.69c-.06.09-5.38,8.82-2.93,15.73,2.51,7.07,28.09,45.16,28.35,45.55a.53.53,0,0,1,.08.33l-6,54.47,15.19,1.17,15.47-60.14-21.45-55.51a.5.5,0,1,1,.94-.36l21.5,55.66a.51.51,0,0,1,0,.3l-15.61,60.71A.5.5,0,0,1,437,306.94Z" style="fill:#263238"></path></g><g id="freepik--character-8--inject-33"><path d="M294.69,81.31s-5.19,6.57-4.15,10.38,1,5.19-1,8.31-6.58,5.19-4.15,6.92a11.89,11.89,0,0,0,4.5,2.07s.69,14.54,3.8,15.23,12.81-1.38,12.81-1.38l5.88,11.08,22.85-11.08-2.08-11.08s10.39-9.69,11.77-20.42-13.15-24.57-27-26S291.58,68.5,294.69,81.31Z" style="fill:#fff"></path><path d="M312.34,134.42a.51.51,0,0,1-.44-.27l-5.7-10.74c-1.84.38-9.78,1.94-12.65,1.3-3.18-.7-4-12.13-4.18-15.31a13.22,13.22,0,0,1-4.31-2.08,1.89,1.89,0,0,1-.91-1.4c-.07-1.1,1.05-2.15,2.34-3.37a17.41,17.41,0,0,0,2.59-2.83c2-3,2-4.25,1-7.9s3.22-9.48,4.09-10.63c-1-4.41-.29-8.07,2.17-10.9,3.85-4.42,11.73-6.39,21.61-5.4,8.1.81,17,5.91,22.61,13,3.65,4.59,5.37,9.39,4.84,13.52-1.3,10.08-10.22,19.08-11.73,20.53l2,10.81a.5.5,0,0,1-.27.54l-22.85,11.08A.54.54,0,0,1,312.34,134.42Zm-5.88-12.08a.5.5,0,0,1,.44.27l5.66,10.65,22.07-10.7-2-10.7a.52.52,0,0,1,.15-.46c.1-.1,10.27-9.7,11.61-20.12.5-3.85-1.14-8.39-4.62-12.77-5.48-6.89-14.08-11.84-21.93-12.63-9.42-.94-17.18,1-20.76,5.07-2.27,2.61-2.91,6.06-1.89,10.24a.49.49,0,0,1-.1.42c-.05.07-5,6.43-4.06,10,1.08,3.94,1.06,5.47-1.1,8.71a18.47,18.47,0,0,1-2.75,3c-1,1-2.06,1.94-2,2.57,0,.08,0,.33.49.66a11.48,11.48,0,0,0,4.29,2,.52.52,0,0,1,.42.47c.28,5.88,1.52,14.35,3.41,14.77,3,.66,12.5-1.37,12.6-1.39Z" style="fill:#263238"></path><ellipse cx="294.52" cy="97.8" rx="1.01" ry="1.74" style="fill:#263238"></ellipse><path d="M294.52,100c-.86,0-1.51-1-1.51-2.23s.65-2.24,1.51-2.24,1.52,1,1.52,2.24S295.39,100,294.52,100Zm0-3.47c-.18,0-.51.47-.51,1.24s.33,1.23.51,1.23.52-.47.52-1.23S294.71,96.56,294.52,96.56Z" style="fill:#263238"></path><path d="M297.56,95.69a.5.5,0,0,1-.35-.15,3.59,3.59,0,0,0-4.58-.8.5.5,0,0,1-.69-.14.49.49,0,0,1,.14-.69,4.61,4.61,0,0,1,5.84.93.5.5,0,0,1,0,.7A.51.51,0,0,1,297.56,95.69Z" style="fill:#263238"></path><path d="M292.93,114.8h-1.74a.51.51,0,0,1-.5-.5.5.5,0,0,1,.5-.5h1.74a.5.5,0,0,1,.5.5A.5.5,0,0,1,292.93,114.8Z" style="fill:#263238"></path><path d="M313.38,100.69s6.23-8,9.35-3.81,0,10.73-3.46,12.46-6.93-.35-6.93-.35" style="fill:#fff"></path><path d="M316.29,110.53a8.77,8.77,0,0,1-4.2-1.11.5.5,0,1,1,.51-.85s3.28,1.91,6.44.32a9.32,9.32,0,0,0,4.23-6,6.77,6.77,0,0,0-.94-5.71,2.25,2.25,0,0,0-1.83-1h0c-2.9,0-6.67,4.77-6.7,4.82a.52.52,0,0,1-.71.08.5.5,0,0,1-.08-.7c.17-.21,4.11-5.2,7.49-5.2h0a3.21,3.21,0,0,1,2.62,1.4,7.78,7.78,0,0,1,1.12,6.54,10.3,10.3,0,0,1-4.76,6.67A7.08,7.08,0,0,1,316.29,110.53Z" style="fill:#263238"></path><path d="M337.27,117.3s-26.66,13.15-29.08,17-6.58,18.29-6.58,18.29,19.73-15.17,27.35-19.67,16.61-8.66,16.61-8.66Z" style="fill:#fff"></path><path d="M301.61,153.05a.54.54,0,0,1-.28-.08.51.51,0,0,1-.2-.56c.17-.59,4.21-14.59,6.64-18.42S336,117.39,337,116.85a.53.53,0,0,1,.55.07l8.3,6.92a.51.51,0,0,1,.18.45.49.49,0,0,1-.29.39c-.09,0-9.06,4.19-16.57,8.63S302.11,152.8,301.92,153A.5.5,0,0,1,301.61,153.05Zm35.59-35.16c-7.59,3.76-26.69,13.65-28.59,16.64s-5,12.93-6.09,16.7c4.43-3.38,19.73-15,26.19-18.78s13.65-7.27,15.94-8.35Z" style="fill:#263238"></path><path d="M384.36,314.55l-20.11-96.66s1.55-54.13-4.64-67.28a103.35,103.35,0,0,0-15.46-23.2s-7-2.32-11.6-.77-30.94,25.91-30.94,25.91-13.14,18.94-14.69,24.35-5.41,140.74-5.41,140.74l.77,30.16" style="fill:#fff"></path><path d="M282.28,348.3a.5.5,0,0,1-.5-.49L281,317.66c.16-5.56,3.89-135.48,5.43-140.89s14.22-23.73,14.76-24.5a.27.27,0,0,1,.07-.08c1.08-1,26.43-24.46,31.12-26s11.62.67,11.92.77a.46.46,0,0,1,.2.13,104.36,104.36,0,0,1,15.56,23.33c6.12,13,4.77,64.5,4.68,67.44l20.1,96.61a.5.5,0,0,1-1,.2L363.76,218s0-.08,0-.12c0-.54,1.48-54.16-4.59-67a103.61,103.61,0,0,0-15.29-23c-.94-.29-7.07-2.1-11.16-.74-3.59,1.2-21.64,17.36-30.72,25.77-.71,1-13.11,19-14.59,24.16-1.51,5.29-5.35,139.27-5.39,140.62l.77,30.13a.49.49,0,0,1-.48.51Z" style="fill:#263238"></path><path d="M362.59,221s-12.75,14.64-32.11,21.72" style="fill:#fff"></path><path d="M330.48,243.26a.51.51,0,0,1-.47-.32.52.52,0,0,1,.3-.65c19-6.95,31.78-21.43,31.91-21.58a.5.5,0,0,1,.75.66c-.13.15-13.06,14.82-32.31,21.86A.57.57,0,0,1,330.48,243.26Z" style="fill:#263238"></path><path d="M359.32,231.37q1.89-2.18,3.74-4.66" style="fill:#fff"></path><path d="M359.32,231.87a.5.5,0,0,1-.33-.12.51.51,0,0,1-.05-.71c1.28-1.47,2.53-3,3.72-4.63a.5.5,0,0,1,.7-.1.51.51,0,0,1,.11.7c-1.21,1.62-2.48,3.2-3.77,4.69A.52.52,0,0,1,359.32,231.87Z" style="fill:#263238"></path><path d="M324.34,251.74s16.06-.73,32.13-17.26" style="fill:#fff"></path><path d="M324.34,252.24a.5.5,0,0,1-.49-.48.49.49,0,0,1,.47-.52c.16,0,16.06-.93,31.79-17.11a.5.5,0,0,1,.72.69c-16,16.49-32.3,17.41-32.46,17.41Z" style="fill:#263238"></path><path d="M352.2,162s-3.3,32.58-17.94,50" style="fill:#fff"></path><path d="M334.26,212.57a.5.5,0,0,1-.38-.82c14.37-17.15,17.79-49.46,17.83-49.78a.5.5,0,1,1,1,.1c0,.33-3.49,32.93-18.06,50.32A.49.49,0,0,1,334.26,212.57Z" style="fill:#263238"></path><path d="M335.45,216.44c-1.12,1.41-2.17,2.67-3.08,3.66" style="fill:#fff"></path><path d="M332.37,220.6a.55.55,0,0,1-.34-.13.51.51,0,0,1,0-.71c.84-.92,1.87-2.14,3.05-3.63a.51.51,0,0,1,.71-.09.52.52,0,0,1,.08.71c-1.2,1.51-2.24,2.75-3.1,3.69A.52.52,0,0,1,332.37,220.6Z" style="fill:#263238"></path><path d="M347.48,199.79s-5.15,7.6-10,14" style="fill:#fff"></path><path d="M337.51,214.26a.49.49,0,0,1-.39-.8c4.75-6.29,9.9-13.87,9.95-14a.5.5,0,0,1,.83.56c-.06.08-5.21,7.69-10,14A.48.48,0,0,1,337.51,214.26Z" style="fill:#263238"></path><path d="M358.37,132.16c0-5.51,4.72-12.19,5.5-21.62s-12.58-12.19-15.72-19.27.39-13.37-9.83-20c-6.08-4-11.6-6-16.57-6.48-10.05-3-17.25-3.38-22.9,1.68-6.58,5.89-6.93,8.31-4.16,14.89,0,0,3.94-2.3,7.3-2.49l.16.26c2.36,4.33-4.33,7.87-2.36,14.55s9,9.83,9.83,14.15-8.65,14.94-7.47,24.38,12.19,11,13,18.08-7.07,12.19-3.14,24,15.33,21.62,26.34,18.47,18.87-8.65,25.55-25.94S358.37,137.66,358.37,132.16Z" style="fill:#fff"></path><path d="M334,193.81c-10,0-19.11-9.28-22.5-19.43-2.44-7.32-.44-12.12,1.32-16.35,1.13-2.72,2.1-5.07,1.81-7.73-.35-3.09-2.87-5.15-5.55-7.32-3.17-2.59-6.77-5.52-7.43-10.76-.71-5.68,2.3-11.72,4.72-16.58,1.64-3.29,3.05-6.14,2.76-7.77-.34-1.85-2-3.53-3.89-5.47-2.27-2.31-4.84-4.93-5.93-8.63s.29-6.39,1.5-8.79c1.06-2.12,1.9-3.8.91-5.64a20.2,20.2,0,0,0-6.78,2.4.53.53,0,0,1-.41,0,.55.55,0,0,1-.3-.28c-2.79-6.64-2.58-9.31,4.28-15.45,5.27-4.72,12.05-5.24,23.39-1.79,5.19.5,10.84,2.71,16.69,6.54,7.1,4.64,7.76,9.26,8.41,13.73a23.56,23.56,0,0,0,1.6,6.54c1.24,2.77,4.12,4.86,7.17,7.07,4.47,3.23,9.09,6.58,8.6,12.44A49,49,0,0,1,361,123.72c-1.16,3.2-2.16,6-2.16,8.44,0,1.52,1,3.64,2.36,6.32,3.14,6.41,7.89,16.09,3.11,28.46-6.82,17.64-15,23.12-25.88,26.24A16.12,16.12,0,0,1,334,193.81ZM302,78.32a.5.5,0,0,1,.42.23l.18.29c1.26,2.31.21,4.39-.89,6.59s-2.4,4.77-1.43,8.06c1,3.46,3.49,6,5.68,8.21,2,2.06,3.77,3.83,4.16,6,.36,2-1.06,4.8-2.85,8.4-2.35,4.73-5.29,10.63-4.61,16,.6,4.84,3.89,7.51,7.07,10.1,2.83,2.31,5.51,4.49,5.9,8,.32,2.91-.75,5.49-1.88,8.22-1.69,4.07-3.61,8.69-1.29,15.66,3.74,11.2,14.64,21.33,25.73,18.15,10.63-3,18.56-8.38,25.23-25.64,4.62-12,0-21.41-3.08-27.66-1.37-2.8-2.46-5-2.46-6.76,0-2.65,1-5.49,2.22-8.78a48.62,48.62,0,0,0,3.29-12.89c.44-5.29-3.95-8.47-8.2-11.54-3-2.19-6.15-4.46-7.49-7.48a24.53,24.53,0,0,1-1.69-6.8c-.63-4.44-1.23-8.64-7.95-13-5.72-3.74-11.22-5.9-16.35-6.41-11.2-3.39-17.48-2.94-22.52,1.56-6.4,5.73-6.63,8-4.24,13.81a19.23,19.23,0,0,1,7-2.28Z" style="fill:#263238"></path><path d="M281.37,305.09s-2.83,12.75-2.83,14.17,4.25,12.28,4.25,12.28l6.14,1.89h9.44l2.84-6.14L298.85,323s2.55-6.37,1.88-9,0-7.56,0-7.56Z" style="fill:#fff"></path><path d="M298.37,333.93h-9.44a.4.4,0,0,1-.15,0L282.64,332a.47.47,0,0,1-.31-.29c-.44-1.12-4.29-11-4.29-12.46s2.55-13,2.85-14.27a.48.48,0,0,1,.52-.39L300.77,306a.48.48,0,0,1,.35.19.47.47,0,0,1,.11.38c0,.05-.64,4.88,0,7.36s-1.37,7.88-1.82,9.06l2.24,4a.5.5,0,0,1,0,.46l-2.83,6.14A.51.51,0,0,1,298.37,333.93Zm-9.37-1h9.05l2.6-5.62-2.24-4a.54.54,0,0,1,0-.43c.69-1.73,2.38-6.65,1.87-8.66a24.75,24.75,0,0,1-.08-7.22l-18.4-1.35c-1.13,5.11-2.73,12.67-2.73,13.64s2.5,7.68,4.13,11.87Z" style="fill:#263238"></path><polyline points="300.07 159.89 286.92 176.9 279.19 307.59 302.62 310.76 321.72 197.01" style="fill:#fff"></polyline><path d="M302.62,311.26h-.06l-23.44-3.17a.52.52,0,0,1-.43-.53l7.73-130.68a.54.54,0,0,1,.11-.28l13.14-17a.51.51,0,0,1,.71-.09.51.51,0,0,1,.09.7l-13.06,16.89-7.69,130.07,22.49,3,19-113.27a.51.51,0,0,1,.58-.41.5.5,0,0,1,.41.57l-19.1,113.75A.5.5,0,0,1,302.62,311.26Z" style="fill:#263238"></path><path d="M303.17,300.88l-.1,0-22.35-4.61a.5.5,0,0,1-.39-.59.51.51,0,0,1,.59-.39l22.35,4.62a.49.49,0,0,1,.39.59A.5.5,0,0,1,303.17,300.88Z" style="fill:#263238"></path></g><g id="freepik--character-7--inject-33"><polyline points="205.87 435.83 221.29 384.58 196.4 327.28 192.93 362.01 190.87 431.52" style="fill:#fff"></polyline><path d="M205.87,436.33l-.15,0a.49.49,0,0,1-.33-.62l15.37-51.07-24-55.37-3.28,32.82-2.06,69.48a.52.52,0,0,1-.52.48.5.5,0,0,1-.48-.51L192.43,362l3.47-34.76a.5.5,0,0,1,.42-.44.49.49,0,0,1,.54.29l24.89,57.3a.52.52,0,0,1,0,.35L206.35,436A.51.51,0,0,1,205.87,436.33Z" style="fill:#263238"></path><path d="M250.36,447.12l-10-80.48,14.47-68.3s8.68-28.94,8.68-36.47V246.82L186,249.72,182.63,257l8.56,52.37,13.32,68.88L230.41,449" style="fill:#fff"></path><path d="M230.41,449.49a.52.52,0,0,1-.47-.33L204,378.39l-13.34-69-8.56-52.38a.49.49,0,0,1,0-.29l3.35-7.25a.49.49,0,0,1,.43-.29l77.57-2.9a.51.51,0,0,1,.36.14.51.51,0,0,1,.15.36v15.05c0,7.51-8.34,35.43-8.7,36.61L240.9,366.66l10,80.4a.5.5,0,0,1-.44.55.49.49,0,0,1-.55-.43l-10-80.48a.43.43,0,0,1,0-.16l14.47-68.31c.1-.32,8.67-29,8.67-36.36V247.34l-76.73,2.87L183.15,257l8.54,52.21L205,378.12l25.88,70.7a.5.5,0,0,1-.3.64A.47.47,0,0,1,230.41,449.49Z" style="fill:#263238"></path><path d="M182.1,56.54s-8.36,5.15-11.58,11.58S168,80,168.92,81.94s-1.93,5.14-3.54,7.39-3.54,3.54-1.93,5.15a41.75,41.75,0,0,1,2.89,3.21s0,13.82,1.93,14.47,12.22-1.29,12.22-1.29l5.14,11.25,28.61-9.64-3.53-9.65s7.07-10,8.35-21.86-.64-17-11.57-23.14S183.7,53.65,182.1,56.54Z" style="fill:#fff"></path><path d="M185.63,122.62a.49.49,0,0,1-.45-.29l-5-10.9c-2.08.38-10.25,1.81-12.09,1.2-2-.67-2.26-10.4-2.27-14.76-.34-.42-1.44-1.74-2.74-3-1.57-1.56-.42-3,.79-4.41.35-.42.72-.88,1.08-1.38l.87-1.17c1.47-1.94,3.3-4.37,2.63-5.71-1.11-2.22-1.6-7.85,1.61-14.27,3.08-6.16,10.62-11.06,11.65-11.71.68-1.06,2.33-1.71,3.62-2.08,5.27-1.5,14.51-1.11,22.39,3.29,10.64,6,13.18,11,11.82,23.64-1.18,10.92-7.26,20.33-8.3,21.87l3.45,9.41a.46.46,0,0,1,0,.38.47.47,0,0,1-.29.26l-28.61,9.65Zm-5.14-12.25a.49.49,0,0,1,.45.29l5,10.84,27.7-9.33L210.24,103a.49.49,0,0,1,.06-.47c.07-.09,7-10,8.27-21.62,1.23-11.36-.3-16.49-11.32-22.65-7.62-4.26-16.55-4.65-21.62-3.21-1.61.46-2.74,1.09-3.1,1.73a.58.58,0,0,1-.17.18c-.08.05-8.28,5.14-11.39,11.37-3,6-2.59,11.41-1.61,13.38s-1,4.47-2.72,6.75c-.3.41-.6.79-.85,1.15-.38.53-.77,1-1.13,1.43-1.34,1.63-1.7,2.22-.86,3.07a42.12,42.12,0,0,1,2.93,3.26.45.45,0,0,1,.11.31c0,7.23.73,13.64,1.59,14,1.32.44,7.88-.53,12-1.3Zm1.61-53.83h0Z" style="fill:#263238"></path><ellipse cx="172.06" cy="84.48" rx="1.01" ry="3.18" style="fill:#263238"></ellipse><path d="M174.81,83.16a1,1,0,0,1-.87-.49,2.76,2.76,0,0,0-1.68-1.51,2.06,2.06,0,0,0-1.48.35,1,1,0,0,1-1.22-1.59,4.06,4.06,0,0,1,3.06-.73,4.61,4.61,0,0,1,3,2.47,1,1,0,0,1-.86,1.5Z" style="fill:#263238"></path><path d="M171,101.48a41.39,41.39,0,0,1-4.14-.59.5.5,0,1,1,.18-1c.87.16,3.29.57,4,.57a.5.5,0,0,1,0,1Z" style="fill:#263238"></path><path d="M228.52,68.6c-.65-3.58,1-4.23.65-10.74s-6.83-9.44-9.43-9.44A9.92,9.92,0,0,1,211,43.87c-2.61-3.91-7.81-3.59-10.74-2a4.45,4.45,0,0,1-2.69.56,8.32,8.32,0,0,0-4.47-2.19c-5.86-1.3-8.47,2.28-10.09,2.28s-3.26-1.62-8.47-.32-3.9,3.58-5.85,7.48S163.1,54.93,167,60.14a18,18,0,0,0,8.79,6.51l.65-.26c2.52.91,4.45,1.47,3.58,2.86-1.63,2.61-4.56,6.19-.33,8.46s7.81,2.61,6.84,5.21,3.25,8.79,8.46,6.51,5.21,1.3,3.58,5.21-6.51,5.53-1,9.76,5.86-3.25,10.42-1.3,9.11,3.91,10.74-1a15.39,15.39,0,0,0,.73-5.54c1.34-.84,3.09-1.9,4.48-2.59,2.6-1.3,3.25-3.91,2.27-5.54s1.31-5.2,3.26-8.13S229.17,72.18,228.52,68.6Z" style="fill:#fff"></path><path d="M200.69,106.23a5.67,5.67,0,0,1-3.39-1.43c-1.72-1.32-2.6-2.48-2.74-3.67-.18-1.44.75-2.62,1.73-3.87a12.14,12.14,0,0,0,1.83-2.81c1-2.38,1.19-4.27.53-4.92s-1.75-.38-3.45.36a6.18,6.18,0,0,1-6.95-1.38c-1.83-1.73-2.76-4.21-2.18-5.76.49-1.31-.38-1.81-3.2-3-1-.43-2.18-.93-3.4-1.59a4.29,4.29,0,0,1-2.35-2.62c-.5-2,.83-4,2-5.78l.49-.76c.18-.29.14-.42.12-.46-.17-.5-1.56-1-2.91-1.48l-.35-.12-.48.18a.47.47,0,0,1-.31,0,18.32,18.32,0,0,1-9.06-6.69c-3.14-4.18-1.7-6.15,0-8.43a17.77,17.77,0,0,0,1.61-2.51,16,16,0,0,0,1.08-2.92c.66-2.23,1.13-3.83,5.1-4.83a12.19,12.19,0,0,1,7.22,0,5,5,0,0,0,1.37.28,4.35,4.35,0,0,0,1.6-.71,11,11,0,0,1,8.59-1.55,9.13,9.13,0,0,1,4.6,2.19,4,4,0,0,0,2.21-.51c3-1.69,8.57-2.14,11.4,2.11a9.39,9.39,0,0,0,8.37,4.33c2.69,0,9.59,2.95,9.94,9.92a23.66,23.66,0,0,1-.49,6.77,9,9,0,0,0-.17,3.9c.16.87.42,1.84.69,2.87.85,3.2,1.81,6.83.22,9.22-1.44,2.15-4.11,6.16-3.25,7.6a3.78,3.78,0,0,1,.33,3,5.31,5.31,0,0,1-2.81,3.19c-1.05.52-2.5,1.36-4.2,2.42v.08a14.84,14.84,0,0,1-.76,5.34,4.7,4.7,0,0,1-2.44,3c-2.38,1.07-5.73-.36-9-1.75-1.75-.75-2.74.09-3.89,1.07A5.08,5.08,0,0,1,200.69,106.23Zm-3-18a2.27,2.27,0,0,1,1.66.6c1.36,1.33.39,4.34-.31,6a12.89,12.89,0,0,1-2,3c-.89,1.12-1.66,2.1-1.53,3.13s.88,1.87,2.36,3c2.74,2.09,3.9,1.11,5.37-.14,1.23-1,2.62-2.22,4.93-1.23,3,1.3,6.19,2.65,8.17,1.76a3.69,3.69,0,0,0,1.9-2.43,14,14,0,0,0,.71-5v-.36a.49.49,0,0,1,.24-.42c1.85-1.17,3.37-2,4.51-2.62A4.3,4.3,0,0,0,226,91a2.87,2.87,0,0,0-.22-2.26c-1.1-1.83.91-5.15,3.26-8.67,1.35-2,.45-5.41-.35-8.41-.27-1-.53-2-.7-2.94a9.79,9.79,0,0,1,.17-4.27,23,23,0,0,0,.47-6.53c-.31-6.21-6.6-9-8.94-9a10.44,10.44,0,0,1-9.2-4.78c-2.48-3.72-7.39-3.29-10.08-1.79a5,5,0,0,1-3,.62.52.52,0,0,1-.31-.16,7.72,7.72,0,0,0-4.22-2,10,10,0,0,0-7.88,1.45,4.67,4.67,0,0,1-2.1.84,5.59,5.59,0,0,1-1.65-.32,11.22,11.22,0,0,0-6.69,0c-3.42.86-3.77,2-4.39,4.14A17,17,0,0,1,169.08,50a17.58,17.58,0,0,1-1.7,2.65c-1.6,2.2-2.66,3.65,0,7.24a18,18,0,0,0,8.36,6.28l.49-.19a.5.5,0,0,1,.36,0l.53.19c1.85.66,3.19,1.14,3.52,2.09a1.51,1.51,0,0,1-.22,1.32c-.16.25-.32.51-.5.78-1,1.62-2.25,3.46-1.86,5a3.32,3.32,0,0,0,1.85,2c1.18.64,2.32,1.12,3.32,1.55,2.58,1.1,4.61,2,3.75,4.28-.44,1.16.43,3.26,1.93,4.69A5.2,5.2,0,0,0,194.8,89,7.52,7.52,0,0,1,197.69,88.22Z" style="fill:#263238"></path><path d="M284.63,261.49s4-56.51,2.38-61.06c-8.8-25.05-26.16-56.45-35.48-63.52s-33.43-22.5-33.43-22.5l-36.65,15.43s-15.11,16.71-17.36,18.32-8.35,26.68-11.89,35-17.68,26.68-17.68,26.68l-11.78,11.51-20.24,17,8.75,8.76L154.48,228l21.89-21.34,7.12,24.08L182.63,257s19.73,8.42,42.17,8.42S265,249.49,265,249.49l-8.41-49.56L268.18,230,270,259.13Z" style="fill:#fff"></path><path d="M224.8,265.89c-22.29,0-42.16-8.37-42.36-8.46a.51.51,0,0,1-.31-.47l.85-26.21-6.85-23.2-21.3,20.76a.45.45,0,0,1-.14.1l-43.23,19.15a.49.49,0,0,1-.56-.1l-8.76-8.76a.5.5,0,0,1-.14-.37.47.47,0,0,1,.18-.36l20.24-17,11.75-11.48c.09-.13,14.1-18.31,17.57-26.51,1.52-3.61,3.56-10.43,5.52-17,3.18-10.68,5.2-17.28,6.54-18.24,2.18-1.55,17.13-18.08,17.28-18.25a.44.44,0,0,1,.18-.12L217.91,114a.47.47,0,0,1,.46,0c.24.15,24.23,15.52,33.46,22.52s26.61,38,35.65,63.75c1.61,4.59-2.19,59-2.35,61.27a.52.52,0,0,1-.19.36.54.54,0,0,1-.39.1l-14.61-2.37a.49.49,0,0,1-.42-.46l-1.84-29-9.75-25.37,7.58,44.63a.53.53,0,0,1-.16.45C265.17,250,247.18,265.89,224.8,265.89Zm-41.66-9.25c2.62,1.06,21.11,8.25,41.66,8.25,20.72,0,37.62-13.85,39.67-15.59L256.1,200a.5.5,0,0,1,1-.26l11.58,30.11a.33.33,0,0,1,0,.15l1.83,28.69,13.67,2.21c1.37-19.66,3.59-56.83,2.37-60.32-9-25.58-26.15-56.33-35.31-63.28-8.73-6.62-30.73-20.77-33.18-22.34l-36.3,15.29c-1.28,1.41-15.16,16.73-17.37,18.31-1.13.81-3.92,10.18-6.16,17.7-2,6.62-4,13.47-5.56,17.13-3.52,8.32-17.17,26-17.74,26.79l-11.83,11.55-19.85,16.64,8.12,8.13,42.84-19L176,206.25a.5.5,0,0,1,.48-.12.48.48,0,0,1,.35.34L184,230.55a.78.78,0,0,1,0,.16Z" style="fill:#263238"></path><polygon points="178.88 122.12 179.2 133.05 220.35 114.09 214.88 107.66 178.88 122.12" style="fill:#fff"></polygon><path d="M179.2,133.55a.48.48,0,0,1-.26-.07.54.54,0,0,1-.24-.41l-.32-10.93a.52.52,0,0,1,.31-.48l36-14.47a.51.51,0,0,1,.57.14l5.46,6.43a.52.52,0,0,1,.11.43.52.52,0,0,1-.28.35l-41.15,19A.49.49,0,0,1,179.2,133.55Zm.19-11.09.29,9.82,39.86-18.37-4.8-5.66Z" style="fill:#263238"></path><path d="M256.6,200.43a.51.51,0,0,1-.5-.44l-6.35-49.13a.5.5,0,0,1,1-.13l6.35,49.13a.49.49,0,0,1-.43.56Z" style="fill:#263238"></path><path d="M191.74,89.65s6.11-10,10.93-4.17S203,97.37,199.45,99a15.52,15.52,0,0,1-7.71,1" style="fill:#fff"></path><path d="M193.8,100.57a16.32,16.32,0,0,1-2.14-.13.5.5,0,0,1-.41-.57.49.49,0,0,1,.57-.42,15.11,15.11,0,0,0,7.43-.93,9.45,9.45,0,0,0,4.84-6.06,7.55,7.55,0,0,0-1.8-6.66,3.74,3.74,0,0,0-3.23-1.62c-3.49.25-6.86,5.68-6.89,5.74a.51.51,0,0,1-.86-.53c.15-.24,3.68-5.92,7.68-6.21a4.73,4.73,0,0,1,4.06,2,8.51,8.51,0,0,1,2,7.53,10.31,10.31,0,0,1-5.4,6.75A14.47,14.47,0,0,1,193.8,100.57Z" style="fill:#263238"></path><path d="M176.37,207.11a.49.49,0,0,1-.36-.84l15.32-16.42,7.46-10.13c-.39-1-2-5.22-4.82-11.76a.5.5,0,1,1,.92-.4c3.25,7.59,4.92,12,4.93,12.06a.49.49,0,0,1-.06.47l-7.66,10.4L176.74,207A.49.49,0,0,1,176.37,207.11Z" style="fill:#263238"></path><path d="M189,194.53a.49.49,0,0,1-.44-.27.5.5,0,0,1,.21-.68c.13-.07,13.73-7.18,22.88-15.25a.51.51,0,0,1,.71,0,.51.51,0,0,1,0,.71c-9.24,8.15-22.94,15.32-23.08,15.39A.46.46,0,0,1,189,194.53Z" style="fill:#263238"></path><path d="M184,199.45a.5.5,0,0,1-.49-.43.5.5,0,0,1,.42-.56c.22,0,21.85-3.31,26.64-6a.5.5,0,0,1,.68.2.5.5,0,0,1-.19.68c-5,2.75-26.08,5.94-27,6.08Z" style="fill:#263238"></path><path d="M102.5,238.35l-9.3.55-13.69,8.75,1.65,5.48,2.73.54s2.19,5.47,3.83,5.47,6.57,2.19,6.57,2.19l9.3-4.37,7.66-9.85Z" style="fill:#fff"></path><path d="M94.29,261.83a.45.45,0,0,1-.2,0c-1.35-.6-5.11-2.15-6.37-2.15-1.73,0-3.54-3.95-4.19-5.53l-2.47-.49a.5.5,0,0,1-.38-.35L79,247.8a.49.49,0,0,1,.21-.57l13.68-8.75a.41.41,0,0,1,.24-.08l9.3-.55a.5.5,0,0,1,.38.15l8.76,8.75a.5.5,0,0,1,0,.66L104,257.26a.43.43,0,0,1-.18.15l-9.31,4.38A.49.49,0,0,1,94.29,261.83Zm-12.74-9.14,2.44.49a.53.53,0,0,1,.37.31c1,2.49,2.58,5.15,3.36,5.15,1.56,0,5.52,1.69,6.56,2.14l9-4.23,7.32-9.4-8.29-8.29-9,.53L80.1,247.87Z" style="fill:#263238"></path><path d="M270,259.13l-5.47,11.81,3.79,9.46,3.78.76L274.4,280s5.67.38,6.81.38,4.54-4.54,5.68-8.32-2.26-10.59-2.26-10.59Z" style="fill:#fff"></path><path d="M272.12,281.66H272l-3.79-.76a.48.48,0,0,1-.36-.3l-3.79-9.46a.51.51,0,0,1,0-.4l5.47-11.81a.49.49,0,0,1,.53-.28L284.71,261a.5.5,0,0,1,.36.27c.15.29,3.47,7,2.29,11-1.12,3.73-4.63,8.68-6.15,8.68-1.06,0-5.82-.31-6.71-.37l-2.15,1.08A.59.59,0,0,1,272.12,281.66ZM268.7,280l3.35.67,2.12-1.06a.47.47,0,0,1,.26-.05c.06,0,5.67.37,6.78.37.76-.06,4-4.09,5.2-8,.95-3.17-1.56-8.78-2.12-10l-14-2.26L265.1,271Z" style="fill:#263238"></path><path d="M265.69,272.45l8.33,4.93,3-1.52-4.92-4.92s4.17-2.27,5.68-5.3" style="fill:#fff"></path><path d="M274,277.88a.59.59,0,0,1-.26-.07l-8.32-4.92a.5.5,0,0,1,.5-.87l8.1,4.79,2.16-1.09-4.43-4.43a.5.5,0,0,1-.14-.42.51.51,0,0,1,.25-.37s4.05-2.23,5.47-5.08a.51.51,0,0,1,.68-.23.52.52,0,0,1,.22.68c-1.24,2.47-4.09,4.42-5.32,5.17l4.47,4.47a.5.5,0,0,1-.13.8l-3,1.51A.46.46,0,0,1,274,277.88Z" style="fill:#263238"></path></g><g id="freepik--character-6--inject-33"><path d="M73.86,389,93.73,280.1s13.1-3.28,24.89-7.21,30.79-17,30.79-17,13.1,21,17.69,36,9.17,103.5,9.17,103.5" style="fill:#fff"></path><path d="M176.27,395.89a.5.5,0,0,1-.5-.48c-.05-.88-4.64-88.54-9.15-103.38-4.15-13.63-15.46-32.36-17.36-35.46-2.91,2-19.75,13.22-30.48,16.8S96.23,280,94.17,280.5L74.35,389.13a.5.5,0,1,1-1-.18L93.24,280a.49.49,0,0,1,.37-.4c.13,0,13.22-3.31,24.85-7.19s30.48-16.84,30.67-17a.47.47,0,0,1,.38-.08.5.5,0,0,1,.32.23c.13.21,13.19,21.19,17.74,36.14s9,100,9.2,103.62a.5.5,0,0,1-.48.52Z" style="fill:#263238"></path><path d="M93.73,280.1c-1-.3-29.27-77.3-28.23-80.76s14.16-16.86,14.16-16.86l24.92-17.3L117,162.75s15.23,13.85,21.46,31.5,11.24,59.15,11.24,59.15l-1,9S128.45,290.58,93.73,280.1Z" style="fill:#fff"></path><path d="M108.86,282.91a52.7,52.7,0,0,1-15.27-2.33h0c-1.15-.35-13.77-35.5-15.21-39.51-5.27-14.71-14-39.71-13.36-41.87,1.06-3.54,13.74-16.52,14.28-17.07l25-17.37.19-.08L117,162.26a.52.52,0,0,1,.43.12c.15.14,15.39,14.14,21.59,31.7s11.21,58.84,11.26,59.26a.2.2,0,0,1,0,.11l-1,9a.5.5,0,0,1-.09.24C149,262.94,134.24,282.91,108.86,282.91ZM94,279.66c32.82,9.82,52.86-15.59,54.25-17.44l1-8.82c-.21-1.76-5.17-41.88-11.2-59-5.75-16.29-19.4-29.49-21.14-31.13l-12.11,2.36L79.94,182.89c-3.55,3.64-13.14,13.85-14,16.59-.26,1.09,3,12.39,13.12,40.63C86.51,260.83,93.08,278.05,94,279.66Z" style="fill:#263238"></path><path d="M66.16,119.83S61,126.41,62,130.22s1,5.19-1,8.3-6.58,5.2-4.15,6.93a11.89,11.89,0,0,0,4.5,2.07s.69,14.54,3.8,15.23,12.81-1.38,12.81-1.38l5.88,11.07,22.85-11.07-2.08-11.08s10.38-9.69,11.77-20.42-13.15-24.57-27-26S63.05,107,66.16,119.83Z" style="fill:#fff"></path><path d="M83.81,172.94a.49.49,0,0,1-.44-.26l-5.71-10.75c-1.83.38-9.78,1.95-12.65,1.31-3.17-.71-4-12.14-4.17-15.31a13.12,13.12,0,0,1-4.31-2.08,1.89,1.89,0,0,1-.91-1.4c-.07-1.1,1-2.16,2.34-3.37a17.41,17.41,0,0,0,2.59-2.83c2-3,2-4.26,1-7.9s3.21-9.48,4.09-10.63c-1-4.41-.29-8.08,2.17-10.9,3.84-4.42,11.72-6.4,21.61-5.41,8.1.81,17,5.92,22.61,13,3.65,4.59,5.37,9.39,4.83,13.51-1.3,10.09-10.22,19.09-11.72,20.54l2,10.81a.5.5,0,0,1-.27.54L84,172.89A.42.42,0,0,1,83.81,172.94Zm-5.88-12.07a.51.51,0,0,1,.44.26L84,171.78l22.07-10.7-2-10.7a.48.48,0,0,1,.15-.45c.1-.1,10.27-9.7,11.61-20.12.5-3.85-1.14-8.39-4.62-12.77-5.48-6.89-14.08-11.85-21.93-12.63-9.41-.94-17.18,1-20.76,5.07-2.27,2.61-2.91,6.06-1.89,10.24a.5.5,0,0,1-.1.42c0,.07-5,6.43-4.06,10,1.07,3.94,1.06,5.47-1.1,8.71a18.47,18.47,0,0,1-2.75,3c-1,.95-2.06,1.94-2,2.57,0,.08,0,.33.49.66a11.61,11.61,0,0,0,4.29,2,.49.49,0,0,1,.41.47c.29,5.88,1.53,14.34,3.42,14.76,3,.67,12.5-1.36,12.59-1.38Z" style="fill:#263238"></path><ellipse cx="65.08" cy="136.3" rx="1.16" ry="2.61" style="fill:#263238"></ellipse><path d="M68.27,132.75a.51.51,0,0,1-.43-.23c-.79-1.23-1.6-1.88-2.41-1.93a2.36,2.36,0,0,0-1.7.81.5.5,0,0,1-.7.08.5.5,0,0,1-.08-.7,3.32,3.32,0,0,1,2.52-1.19c1.15.06,2.24.86,3.22,2.39a.51.51,0,0,1-.15.69A.56.56,0,0,1,68.27,132.75Z" style="fill:#263238"></path><path d="M66,154.75a.52.52,0,0,1-.21,0L62,153a.49.49,0,0,1-.25-.66.51.51,0,0,1,.66-.25l3.77,1.74a.5.5,0,0,1-.21.95Z" style="fill:#263238"></path><path d="M108.73,155.83s-26.65,13.15-29.07,17-2.84,13.35-2.84,13.35,16-10.24,23.61-14.73S117,162.75,117,162.75Z" style="fill:#fff"></path><path d="M76.82,186.64a.43.43,0,0,1-.25-.07.48.48,0,0,1-.25-.45c0-.4.45-9.72,2.92-13.6s28.18-16.6,29.27-17.14a.49.49,0,0,1,.54.07l8.31,6.92a.51.51,0,0,1,.18.45.53.53,0,0,1-.29.39c-.09,0-9.06,4.19-16.57,8.63s-23.43,14.62-23.59,14.72A.56.56,0,0,1,76.82,186.64Zm31.84-30.22c-7.58,3.76-26.68,13.65-28.58,16.64s-2.52,9.62-2.7,12.13C80.76,183,93.63,174.84,100.17,171c6.32-3.73,13.66-7.26,16-8.34Z" style="fill:#263238"></path><path d="M66.16,119.83s8.31-4.84,11.08-1-5.54,7.61-2.43,10.72S88,142,90.39,145.1s7.61,8.65,14.19,5.19,14.88-16.61,13.85-23.19S111.16,109.45,98.35,105s-21.46-5.88-28,0S63.39,113.26,66.16,119.83Z" style="fill:#fff"></path><path d="M100.39,151.88c-3,0-6.56-1.55-10.39-6.47-1.73-2.22-7.43-7.7-11.6-11.71-1.64-1.58-3.06-2.95-3.94-3.82-1.85-1.85-.33-3.9,1-5.72,1.54-2.08,2.47-3.56,1.37-5.07-2.47-3.4-10.34,1.13-10.42,1.18a.53.53,0,0,1-.41,0,.55.55,0,0,1-.3-.28c-2.8-6.64-2.58-9.32,4.28-15.45s15.61-4.64,28.54-.1c13.08,4.6,19.37,16,20.4,22.54,1.1,7-7.6,20.29-14.11,23.71A9.4,9.4,0,0,1,100.39,151.88Zm-26.51-35a4.36,4.36,0,0,1,3.76,1.66c1.61,2.22,0,4.36-1.37,6.26S74,128,75.17,129.17c.87.87,2.29,2.23,3.92,3.81,4.19,4,9.93,9.54,11.69,11.81,4.47,5.75,9,7.45,13.57,5.06,6.11-3.22,14.61-16.16,13.58-22.67-1-6.31-7.07-17.31-19.74-21.76s-21.11-5.85-27.54-.1-6.63,8-4.24,13.81C67.66,118.46,71,116.84,73.88,116.84Z" style="fill:#263238"></path><path d="M106.63,108.23s14.38,0,18.3,2,9.15,13.07,10.46,25.49,3.92,35.94,3.92,35.94a24.86,24.86,0,0,1-9.8,13.72c-7.85,5.23-25.49,3.27-25.49,3.27l-6.54-3.92s2.62-15,5.23-30.72,3.27-28.1,2-35.29S106.63,108.23,106.63,108.23Z" style="fill:#fff"></path><path d="M111.64,189.48c-4.18,0-7.37-.34-7.68-.37a.68.68,0,0,1-.2-.07l-6.53-3.92a.51.51,0,0,1-.24-.52c0-.15,2.65-15.21,5.23-30.71s3.27-27.92,2-35.12c-1.34-7.36,2-10.75,2.1-10.89a.47.47,0,0,1,.35-.15c.6,0,14.54,0,18.53,2s9.38,13.12,10.72,25.88c1.3,12.28,3.9,35.71,3.93,35.94a.91.91,0,0,1,0,.17,25.2,25.2,0,0,1-10,14C125.19,188.82,117.45,189.48,111.64,189.48Zm-7.46-1.36c1.48.15,17.76,1.66,25-3.2a24.49,24.49,0,0,0,9.57-13.34c-.18-1.6-2.66-24-3.91-35.85-1.27-12.08-6.42-23.21-10.18-25.09-3.51-1.76-16-1.9-17.85-1.91-.57.7-2.78,3.87-1.69,9.87,1.32,7.31.63,19.9-2,35.46-2.37,14.21-4.77,28.06-5.17,30.38Z" style="fill:#263238"></path><path d="M84.85,139.22s6.23-8,9.35-3.81,0,10.73-3.46,12.46a7.77,7.77,0,0,1-6.93-.35" style="fill:#fff"></path><path d="M87.76,149.06a8.77,8.77,0,0,1-4.2-1.11.5.5,0,0,1-.18-.68.51.51,0,0,1,.69-.18s3.28,1.91,6.44.33a9.37,9.37,0,0,0,4.23-6,6.76,6.76,0,0,0-.94-5.71,2.23,2.23,0,0,0-1.83-1h0c-2.89,0-6.66,4.77-6.69,4.81a.51.51,0,0,1-.71.09.5.5,0,0,1-.08-.7c.16-.21,4.11-5.2,7.49-5.2h0a3.21,3.21,0,0,1,2.62,1.4,7.74,7.74,0,0,1,1.11,6.54A10.25,10.25,0,0,1,91,148.32,7.08,7.08,0,0,1,87.76,149.06Z" style="fill:#263238"></path><path d="M72.77,191.67a17,17,0,0,0-8.52,13.75C63.6,215.25,76,259.14,76,259.14l-4.58,80.57,12.45,2.62s17-68.13,19-70.09-1.31-47.82-1.31-47.82" style="fill:#fff"></path><path d="M83.91,342.83H83.8L71.36,340.2a.5.5,0,0,1-.4-.52l4.58-80.49c-.77-2.72-12.43-44.12-11.79-53.8a17.65,17.65,0,0,1,8.8-14.17.51.51,0,0,1,.67.22.5.5,0,0,1-.23.67,16.7,16.7,0,0,0-8.24,13.35c-.64,9.62,11.65,53.1,11.78,53.54a.43.43,0,0,1,0,.16L72,339.31l11.56,2.43c2.22-8.88,17-67.89,19-69.86,1.28-1.71-.21-30-1.46-47.43a.5.5,0,0,1,.47-.53.49.49,0,0,1,.53.46c.55,7.7,3.19,46.19,1.16,48.21-1.45,1.72-12.08,42.72-18.86,69.86A.51.51,0,0,1,83.91,342.83Z" style="fill:#263238"></path><polygon points="71.46 339.71 66.22 352.81 71.46 363.94 75.39 364.6 83.91 358.7 83.91 342.33 71.46 339.71" style="fill:#fff"></polygon><path d="M75.39,365.1h-.08l-3.93-.65a.51.51,0,0,1-.37-.28L65.77,353a.51.51,0,0,1,0-.4L71,339.52a.51.51,0,0,1,.57-.3L84,341.84a.5.5,0,0,1,.4.49V358.7a.5.5,0,0,1-.22.41L75.67,365A.47.47,0,0,1,75.39,365.1Zm-3.59-1.61,3.47.58,8.14-5.63V342.73l-11.64-2.45-5,12.51Z" style="fill:#263238"></path></g><g id="freepik--character-1--inject-33"><path d="M130.93,327.59l-17.64-5.25s-7.13,13.5-7.88,15-.56,5.28.19,6.78a5.18,5.18,0,0,0,.85,1.06,5.68,5.68,0,0,0,1.5,2.9,3.58,3.58,0,0,0,2.36.71l1,.91c.11,1,.58,2.55,1.58,2.93a6.16,6.16,0,0,0,2.42.59c1.3,1,3.51,2,5.45,1.38,2.25-.75,6-5.62,6.75-6.75.55-.82,2.89-4.63,4.12-6.64a4.16,4.16,0,0,0,.58-2.69Z" style="fill:#fff"></path><path d="M119.5,355.31a7.53,7.53,0,0,1-4.32-1.6,7,7,0,0,1-2.42-.61c-1.36-.51-1.77-2.43-1.88-3.15l-.77-.67a3.86,3.86,0,0,1-2.5-.82,6,6,0,0,1-1.61-3,5.54,5.54,0,0,1-.85-1.08c-.79-1.59-1-5.53-.18-7.23.74-1.49,7.59-14.47,7.88-15a.5.5,0,0,1,.59-.24l17.63,5.25a.49.49,0,0,1,.35.42l1.33,10.93a4.72,4.72,0,0,1-.65,3c-1.31,2.14-3.59,5.84-4.13,6.66s-4.52,6.12-7,6.95A4.59,4.59,0,0,1,119.5,355.31Zm-6-32.38c-1.14,2.17-7,13.3-7.68,14.64s-.48,5,.19,6.33a4.6,4.6,0,0,0,.76.94.49.49,0,0,1,.13.23,5.32,5.32,0,0,0,1.34,2.64,3.11,3.11,0,0,0,2,.58.65.65,0,0,1,.38.13l1,.9a.59.59,0,0,1,.17.32c.12,1.07.59,2.27,1.26,2.52a5.51,5.51,0,0,0,2.25.55.55.55,0,0,1,.3.11c1.23,1,3.27,1.88,5,1.31,2-.68,5.7-5.36,6.49-6.56.54-.8,2.81-4.49,4.11-6.62a3.7,3.7,0,0,0,.52-2.37L130.47,328Z" style="fill:#263238"></path><path d="M127.55,348.35h-.08a.49.49,0,0,1-.41-.57,2.89,2.89,0,0,0-1.61-2.85.5.5,0,0,1,.45-.89,3.82,3.82,0,0,1,2.14,3.9A.49.49,0,0,1,127.55,348.35Z" style="fill:#263238"></path><path d="M123.8,348.35l-.14,0a.5.5,0,0,1-.34-.62,12.1,12.1,0,0,1,5.51-7.44.5.5,0,0,1,.45.9,11.28,11.28,0,0,0-5,6.82A.49.49,0,0,1,123.8,348.35Z" style="fill:#263238"></path><path d="M221.43,449.42a207.64,207.64,0,0,0,35.05-3.77l16.2-45L251.3,360.4l-.62-18.86-96.18-5-5,26.4-15.42,73.24a180.52,180.52,0,0,0,19.36,6.31q5.58,1.47,11.43,2.65l29.89-64h3.77l34.57,32.06Z" style="fill:#263238"></path><path d="M221.43,449.92a.54.54,0,0,1-.4-.2.52.52,0,0,1-.07-.45l11.54-35.92-34.2-31.71h-3.25l-29.76,63.68a.49.49,0,0,1-.55.28c-3.93-.79-7.79-1.69-11.46-2.66a182.26,182.26,0,0,1-19.41-6.32.5.5,0,0,1-.31-.57L149,362.81l5-26.39a.49.49,0,0,1,.52-.41l96.18,5a.49.49,0,0,1,.47.48l.63,18.75,21.32,40.13a.51.51,0,0,1,0,.4l-16.2,45a.5.5,0,0,1-.38.32,206.4,206.4,0,0,1-35.12,3.78Zm-26.7-69.28h3.77a.49.49,0,0,1,.34.14l34.57,32.06a.48.48,0,0,1,.14.52L222.13,448.9a205.58,205.58,0,0,0,34-3.68l16-44.55-21.27-40a.73.73,0,0,1-.06-.21l-.61-18.4-95.29-5L150,363l-15.33,72.83A180.29,180.29,0,0,0,153.54,442c3.53.94,7.23,1.8,11,2.57l29.72-63.61A.52.52,0,0,1,194.73,380.64Z" style="fill:#263238"></path><path d="M328.08,227.35c-11.6-7.14-22.31-10.71-33.91-17.85a56.3,56.3,0,0,0-20.53-7.14c-17.85-.9-35.71-3.57-53.56-2.68-15.17,0-30.34,1.78-44.62,6.25A19.32,19.32,0,0,0,171,209.5c-7.14,8.92-13.39,17-20.53,25.88-8,13.39-20.52,22.31-25,35.7-5.27,12.81-8.64,26.24-14.91,50.07A11.18,11.18,0,0,0,132,327.5c6.69-20.35,13.39-35.89,17.59-45.71,4.16-9.15,14.52-14.43,21.25-23.24a7.15,7.15,0,0,1,1.41-2c-1.11,10.81-2.37,21.34-4.48,36.62L148.84,339s13.63,20.81,23.74,24.32a123.59,123.59,0,0,0,19.58,5L197.87,356l2.2,11.87s16-1.88,28.78-6.27,27.48-16.29,27.48-16.29l-6.28-42.12,21.8-59.78c15.18,1.79,30.35,3.57,45.52,7.14,4.47.9,9.82,0,12.5-4.46C332.55,239.84,335.22,232.7,328.08,227.35Z" style="fill:#652B32"></path><path d="M192.16,368.81h-.08a124.67,124.67,0,0,1-19.67-5c-10.15-3.54-23.43-23.67-24-24.53a.47.47,0,0,1,0-.46l18.88-45.78c1.89-13.69,3.16-23.94,4.3-34.83a5.36,5.36,0,0,0-.28.52l-.06.1a72.23,72.23,0,0,1-9.71,9.83c-4.68,4.17-9.11,8.1-11.48,13.32l-.21.47c-4.29,10-10.79,25.18-17.36,45.18A11.68,11.68,0,0,1,110.07,321l1.45-5.49c5.38-20.47,8.63-32.82,13.49-44.64,2.65-7.94,8-14.26,13.77-21A111.74,111.74,0,0,0,150,235.12c3.61-4.52,7-8.76,10.31-13s6.69-8.47,10.25-12.93a20.38,20.38,0,0,1,4.63-3.7c13.39-4.19,28.46-6.3,44.85-6.3,11.91-.6,24,.41,35.75,1.39,5.85.49,11.89,1,17.83,1.29a56.58,56.58,0,0,1,20.75,7.2A177.57,177.57,0,0,0,311.34,218a180.2,180.2,0,0,1,17,8.95l0,0c7.75,5.81,4.26,14,1.95,19.34-2.92,4.87-8.65,5.64-13.06,4.75-15-3.53-30.3-5.34-45.08-7.08l-21.63,59.29,6.27,42a.51.51,0,0,1-.18.46c-.15.12-15,12-27.64,16.37s-28.72,6.28-28.88,6.3a.51.51,0,0,1-.55-.41l-1.92-10.33-5,10.89A.49.49,0,0,1,192.16,368.81ZM149.4,339c1.49,2.23,14.06,20.68,23.34,23.91a123.69,123.69,0,0,0,19.12,4.87l5.56-12a.5.5,0,0,1,.51-.29.51.51,0,0,1,.43.41l2.11,11.4c2.73-.34,16.87-2.27,28.21-6.19,11.68-4,25.22-14.52,27.12-16l-6.25-41.83a.54.54,0,0,1,0-.25l21.8-59.78a.5.5,0,0,1,.53-.32c14.93,1.75,30.38,3.57,45.58,7.15,4.05.81,9.33.12,11.95-4.24,2.86-6.68,4.91-13.14-1.64-18.07a180.06,180.06,0,0,0-16.89-8.89,176.94,176.94,0,0,1-17-9,55.63,55.63,0,0,0-20.33-7.07c-5.92-.29-12-.8-17.82-1.28-11.69-1-23.77-2-35.64-1.39-16.32,0-31.29,2.09-44.51,6.22a19.66,19.66,0,0,0-4.25,3.45c-3.53,4.42-6.87,8.65-10.22,12.88s-6.7,8.49-10.28,13a110.15,110.15,0,0,1-11.31,14.89c-5.66,6.62-11,12.87-13.59,20.66-4.86,11.79-8.1,24.12-13.47,44.55L111,321.28a10.67,10.67,0,0,0,20.46,6.06c6.59-20,13.1-35.22,17.41-45.26l.2-.48c2.47-5.43,7-9.43,11.74-13.67a71.28,71.28,0,0,0,9.54-9.64,8.16,8.16,0,0,1,1.48-2.07.5.5,0,0,1,.57-.1.49.49,0,0,1,.29.5c-1.19,11.57-2.49,22.19-4.49,36.64a.27.27,0,0,1,0,.12Z" style="fill:#263238"></path><path d="M245.84,320.83a.5.5,0,0,1-.22-.95l4.21-2.05a.5.5,0,1,1,.44.9l-4.21,2A.59.59,0,0,1,245.84,320.83Z" style="fill:#263238"></path><path d="M225.53,330.73a.51.51,0,0,1-.24-.07.49.49,0,0,1-.26-.38L224.4,324a.51.51,0,0,1,.29-.5l23.89-11.32a.5.5,0,0,1,.42.91l-23.57,11.16.53,5.22,17-8.27a.5.5,0,0,1,.43.9l-17.62,8.58A.46.46,0,0,1,225.53,330.73Z" style="fill:#263238"></path><path d="M187.18,327a.5.5,0,0,1-.34-.13L168,309.22a.5.5,0,0,1,.69-.73l18.22,17,1-4.52-8-7.14a.49.49,0,0,1,0-.7.48.48,0,0,1,.7,0l8.18,7.33a.5.5,0,0,1,.16.49l-1.26,5.65a.49.49,0,0,1-.34.37A.39.39,0,0,1,187.18,327Z" style="fill:#263238"></path><path d="M178.7,312.56a.5.5,0,0,1-.33-.12l-8.49-7.62a.48.48,0,0,1,0-.7.49.49,0,0,1,.7,0l8.49,7.61a.5.5,0,0,1,0,.71A.49.49,0,0,1,178.7,312.56Z" style="fill:#263238"></path><path d="M199.13,353.36h-.06a.5.5,0,0,1-.44-.55l1.55-13.39a.5.5,0,1,1,1,.11l-1.55,13.39A.49.49,0,0,1,199.13,353.36Z" style="fill:#263238"></path><path d="M201.18,335.58h-.06a.51.51,0,0,1-.44-.56l4.51-39a.51.51,0,0,1,.55-.44.5.5,0,0,1,.44.56l-4.5,39.05A.51.51,0,0,1,201.18,335.58Z" style="fill:#263238"></path><path d="M206.16,292.39h0a.5.5,0,0,1-.44-.56l.5-4.41a.53.53,0,0,1,.56-.44.51.51,0,0,1,.44.56l-.51,4.41A.51.51,0,0,1,206.16,292.39Z" style="fill:#263238"></path><path d="M170.82,260.51a.69.69,0,0,1-.53-.24c-.33-.38-.31-1.08.08-1.93a.27.27,0,0,1,.06-.1c.53-.69,1-1.33,1.39-1.95a.5.5,0,0,1,.59-.19.5.5,0,0,1,.32.53c-.26,2.17-.89,3.6-1.67,3.85Z" style="fill:#263238"></path><path d="M172.23,257.07h-.07a.49.49,0,0,1-.42-.56l4.11-28.78a.51.51,0,0,1,.57-.42.5.5,0,0,1,.42.56l-4.11,28.78A.51.51,0,0,1,172.23,257.07Z" style="fill:#263238"></path><path d="M175,240.34a.5.5,0,0,1-.49-.38L171,225.23a.51.51,0,0,1,.37-.6.5.5,0,0,1,.6.37l3.58,14.73a.51.51,0,0,1-.37.6Z" style="fill:#263238"></path><path d="M219.5,198.88s-4.37.55-10.25,1.35a33.07,33.07,0,0,1-2.55,2.57c-2.46,2.23-11.16,17-11.16,17l6.25,4.91-11.16,4.91s.89,11.6.89,13.16,4.24,14.51,7.81,23A108.81,108.81,0,0,0,209.07,283a119.46,119.46,0,0,1,20.39-18.37c11.38-7.81,26.33-29.45,26.33-29.45l-7.37-10,10.71-3.35-4.46-20.31v-.07C238.65,200.29,219.5,198.88,219.5,198.88Z" style="fill:#652B32"></path><path d="M209.07,283.48h0a.53.53,0,0,1-.39-.21,110.89,110.89,0,0,1-9.79-17.35c-3.46-8.23-7.85-21.45-7.85-23.18,0-1.52-.88-13-.89-13.12a.5.5,0,0,1,.3-.5l10.39-4.57-5.59-4.4a.48.48,0,0,1-.12-.64c.35-.61,8.77-14.82,11.25-17.08a33.32,33.32,0,0,0,2.52-2.53.47.47,0,0,1,.31-.16c5.88-.8,10.24-1.35,10.24-1.35h.1c.19,0,19.34,1.42,35.17,2.51a.5.5,0,0,1,.47.5l4.45,20.27a.5.5,0,0,1-.34.59l-10,3.13,6.95,9.48a.5.5,0,0,1,0,.58c-.15.22-15.14,21.81-26.46,29.58a120.21,120.21,0,0,0-20.29,18.28A.46.46,0,0,1,209.07,283.48Zm-17.92-53.59c.16,2,.87,11.43.87,12.85s4.2,14.3,7.77,22.79a108.23,108.23,0,0,0,9.33,16.64,120.45,120.45,0,0,1,20-18c10.46-7.18,24.17-26.43,26-29L248,225.41A.49.49,0,0,1,248,225a.51.51,0,0,1,.32-.32l10.28-3.21-4.3-19.57c-15.36-1.06-33.65-2.4-34.74-2.48-.49.07-4.58.59-10,1.32a32,32,0,0,1-2.47,2.47c-2.15,2-9.46,14.16-10.84,16.47l5.91,4.64a.51.51,0,0,1,.18.45.49.49,0,0,1-.29.4Z" style="fill:#263238"></path><path d="M207.29,231.51s-5.52,20.89-4.13,29.92S209.07,283,209.07,283s20.2-33.06,26.78-42.24,9.36-27.26,9.36-31.09-25-8-27.45-7.29-5.56,11.81-5.56,11.81Z" style="fill:#fff"></path><path d="M209.07,283.48h0a.51.51,0,0,1-.42-.33c0-.13-4.55-12.66-5.93-21.64s3.91-29.27,4.14-30.12h0L211.72,214c.53-1.9,3.33-11.43,5.9-12.16,2.11-.6,22.33,2.55,27,6.06a2.24,2.24,0,0,1,1.1,1.71c0,4.24-2.94,22.29-9.45,31.38s-26.56,41.88-26.76,42.21A.51.51,0,0,1,209.07,283.48Zm-1.3-51.83c-.1.4-5.46,20.92-4.11,29.71,1.14,7.42,4.45,17.33,5.53,20.46,3.29-5.36,20.35-33.13,26.26-41.37,6.37-8.91,9.26-26.64,9.26-30.8,0-.24-.25-.57-.7-.91-4.49-3.39-24.35-6.41-26.11-5.9-1.58.45-4,7.27-5.22,11.47Z" style="fill:#263238"></path><path d="M216.5,230l-1.64,6.13a39.44,39.44,0,0,1-12.26.41c-7-.82-15.13-14.72-22.9-26.58-6.53-10-20.43-8.11-30.36-5.77-5.65,1.33-10.6,2.76-16.49,2.27a116.18,116.18,0,0,1-13.25-2.32c-2-.41-16.31,7.3-16.31,7.3l13.16,10.39s12.77,1.37,22.39-.5c4-.78,7.6-2.95,11.64-3.78,7.82-1.61,16.91-1.05,23.49,3.86,5.61,4.19,9.12,10.53,13.91,15.54,8.58,9,14.72,7.77,18.4,6.54s11.45-4.09,11.45-4.09l13.08-6.13L223.45,221Z" style="fill:#263238"></path><path d="M201.54,244.78c-3.78,0-8.41-1.65-14-7.53-1.83-1.92-3.49-4.06-5.1-6.12-2.61-3.35-5.31-6.81-8.74-9.37-5.69-4.24-14.11-5.62-23.09-3.77a35.78,35.78,0,0,0-5.67,1.85,34.13,34.13,0,0,1-6,1.93c-9.59,1.87-22.42.52-22.55.51a.55.55,0,0,1-.25-.1L103,211.78a.5.5,0,0,1,.07-.83c2.41-1.3,14.52-7.77,16.65-7.36l2.92.61a84.63,84.63,0,0,0,10.27,1.72c5.16.42,9.68-.67,14.46-1.82l1.87-.45c10-2.36,24.15-4.31,30.9,6q1.31,2,2.62,4c6.87,10.63,14,21.62,19.91,22.32a40.55,40.55,0,0,0,11.81-.34l1.56-5.84a.48.48,0,0,1,.08-.18l7-9a.52.52,0,0,1,.43-.2.5.5,0,0,1,.4.25L231.24,233a.53.53,0,0,1,0,.41.5.5,0,0,1-.27.3l-13.08,6.14c-.12,0-7.86,2.89-11.51,4.11A15.33,15.33,0,0,1,201.54,244.78Zm-43.32-28.59c6.22,0,11.84,1.63,16.05,4.77,3.54,2.64,6.27,6.15,8.92,9.55,1.6,2.05,3.25,4.16,5.05,6.05,9,9.38,15.21,7.3,17.88,6.41,3.63-1.21,11.36-4.06,11.43-4.08L230.1,233l-6.7-11.16L217,230.18l-1.61,6a.5.5,0,0,1-.37.36,39.71,39.71,0,0,1-12.44.42c-6.41-.76-13.64-11.94-20.64-22.76-.88-1.36-1.75-2.72-2.62-4-6.41-9.78-20.09-7.86-29.83-5.56l-1.86.44c-4.87,1.17-9.47,2.28-14.78,1.84a83.4,83.4,0,0,1-10.39-1.73c-1-.21-1.94-.41-2.92-.6-1.17-.25-8.63,3.31-15.31,6.89l12.45,9.83c1.43.14,13.21,1.22,22.11-.51a34.45,34.45,0,0,0,5.8-1.88,35.49,35.49,0,0,1,5.83-1.9A39.06,39.06,0,0,1,158.22,216.19Zm56.64,19.89h0Z" style="fill:#263238"></path><path d="M217.7,199.68s-5.35,8-6.54,15.77a121.84,121.84,0,0,1-3.87,16.06l16.36-3.86,12.2,13.09s8-15.77,9.52-25.29.9-11.9.9-11.9Z" style="fill:#fff"></path><path d="M235.85,241.24a.48.48,0,0,1-.36-.16l-12-12.88L207.41,232a.52.52,0,0,1-.49-.15.51.51,0,0,1-.11-.49,121.46,121.46,0,0,0,3.85-16c1.2-7.75,6.41-15.64,6.63-16a.5.5,0,0,1,.48-.22l28.56,3.87a.5.5,0,0,1,.42.38c0,.1.6,2.58-.88,12.09s-9.24,24.8-9.57,25.44a.5.5,0,0,1-.38.27Zm-12.2-14.09a.51.51,0,0,1,.37.15l11.71,12.57c1.5-3.05,7.86-16.25,9.15-24.5,1.16-7.4,1-10.45.94-11.38L218,200.22c-.91,1.43-5.26,8.54-6.3,15.3A121.56,121.56,0,0,1,208,230.83l15.51-3.67Z" style="fill:#263238"></path><path d="M219.19,185.1s-2.68,20.23-2.68,21.12,4.47,19.94,7.14,21.43,22.32-19.34,23.21-21.72-3-7.74-10.41-13.39S221.27,181.53,219.19,185.1Z" style="fill:#fff"></path><path d="M224,228.22a1.11,1.11,0,0,1-.58-.14c-3.11-1.73-7.4-21.68-7.4-21.86,0-.9,2.41-19.11,2.69-21.19a.43.43,0,0,1,.06-.18,2.68,2.68,0,0,1,1.87-1.33c3.14-.63,8.71,3,16.12,8.62s11.61,11.21,10.58,14c-.81,2.17-17.58,20.13-22.51,22A2.55,2.55,0,0,1,224,228.22Zm-4.32-42.95c-1.07,8.11-2.65,20.3-2.66,20.95.08,1.74,4.63,19.73,6.89,21,0,0,.13.06.57-.1,4.6-1.69,21.16-19.32,21.92-21.36s-2.55-7-10.25-12.81c-6.22-4.73-12.37-9-15.31-8.44A1.69,1.69,0,0,0,219.67,185.27Z" style="fill:#263238"></path><path d="M229.31,196.7l10.3,17.77c3.82-4,6.91-7.63,7.25-8.54.51-1.35-.52-3.67-2.87-6.44a58.44,58.44,0,0,0-7.84-3.08C235.26,196.41,229.31,196.7,229.31,196.7Z" style="fill:#263238"></path><path d="M239.61,215h-.06a.51.51,0,0,1-.38-.25L228.87,197a.51.51,0,0,1,.41-.75c.24,0,6-.29,6.87-.29.69,0,5.12,1.81,8,3.12a.59.59,0,0,1,.18.13c1.75,2.08,3.69,5,3,6.94-.42,1.11-4,5.18-7.36,8.72A.51.51,0,0,1,239.61,215Zm-9.46-17.81,9.55,16.48c4-4.26,6.44-7.23,6.69-7.89.43-1.13-.58-3.32-2.71-5.85a62,62,0,0,0-7.55-3C235.47,196.91,231.81,197.08,230.15,197.16Z" style="fill:#263238"></path><path d="M268,158.16s7.15-2.63,6.77-9.78-8.27-13.92-9.4-12a24.28,24.28,0,0,0-1.88,4.14s-9.41-6-13.17-4.14a6.7,6.7,0,0,0-3.76,5.65s-16.56-7.15-24.83,0-4.14,32-2.26,35.36,10.53,6.4,12.79,5.27,2.26-10.54,5.64-12.42,11.67-4.13,12.42-7.14a14.72,14.72,0,0,1,1.5-4.14L265,160.8Z" style="fill:#263238"></path><path d="M230.9,183.36c-3.58,0-10.18-2.76-11.85-5.77-2-3.56-6.1-28.66,2.37-36,7.59-6.55,21.55-1.6,24.72-.34a7.15,7.15,0,0,1,4-5.37c3.48-1.74,11,2.57,13.13,3.83a24.11,24.11,0,0,1,1.72-3.64,1.29,1.29,0,0,1,1.59-.49c2.73.68,8.42,6.67,8.74,12.76.37,7-6.15,9.89-7,10.24l-3,2.57a.46.46,0,0,1-.4.12l-12.83-1.83a17.48,17.48,0,0,0-1.29,3.72c-.59,2.35-4.9,4.13-8.7,5.69a40.79,40.79,0,0,0-4,1.77c-1.67.93-2.49,4.14-3.21,7-.66,2.6-1.23,4.84-2.46,5.46A3.66,3.66,0,0,1,230.9,183.36Zm.94-44c-3.57,0-7.13.77-9.77,3.05-7.94,6.85-4,31.4-2.14,34.74s10.21,6,12.13,5.06c.81-.41,1.38-2.65,1.93-4.81.77-3,1.64-6.46,3.69-7.59a42.62,42.62,0,0,1,4.06-1.82c3.41-1.41,7.65-3.15,8.11-5a14.9,14.9,0,0,1,1.58-4.29.48.48,0,0,1,.48-.22l12.94,1.85,2.84-2.48a.51.51,0,0,1,.16-.09c.27-.11,6.79-2.6,6.44-9.29-.3-5.77-5.76-11.29-8-11.84-.13,0-.42-.09-.49,0a24,24,0,0,0-1.84,4,.48.48,0,0,1-.31.31.44.44,0,0,1-.43,0c-2.55-1.63-9.8-5.55-12.68-4.11a6.14,6.14,0,0,0-3.48,5.2.5.5,0,0,1-.7.46A42.61,42.61,0,0,0,231.84,139.32Z" style="fill:#263238"></path><path d="M227.39,177.73s-.75-4.89-4.89-4.89-8.28,6-5.27,12,8.28,3,8.28,3,2.63,8.65,3.76,9.78,19.19,10.15,22.95,9.4S262,190.89,262,190.89s5.27.76,5.27-1.88-4.14-12.79-4.14-12.79S268,171,268,166.82v-8.66l-24.08-1.88s2.64,5.27,1.88,6.78-13.16,5.64-13.16,5.64,0,6-1.13,7.15S227.39,177.73,227.39,177.73Z" style="fill:#fff"></path><path d="M251.72,207.61c-5,0-21.7-8.49-22.8-9.59s-3.08-7.39-3.72-9.44a6.64,6.64,0,0,1-4.37.32,6.88,6.88,0,0,1-4.05-3.8,9.49,9.49,0,0,1,.29-9.3,6.69,6.69,0,0,1,5.43-3.46c3.28,0,4.81,2.86,5.27,4.76a9.46,9.46,0,0,0,3.4-1.61c.68-.67,1-4.38,1-6.79a.5.5,0,0,1,.34-.48c6-2,12.42-4.55,12.88-5.39s-.84-4.23-1.88-6.32a.52.52,0,0,1,0-.51.46.46,0,0,1,.45-.21l24.08,1.88a.49.49,0,0,1,.46.49v8.66c0,3.82-3.84,8.41-4.81,9.51.69,1.71,4.06,10.21,4.06,12.68a2,2,0,0,1-.71,1.58c-1.24,1.07-3.74.94-4.73.85-1.08,2.71-6.3,15.38-10,16.12A2.8,2.8,0,0,1,251.72,207.61Zm-26.21-20.22.18,0a.53.53,0,0,1,.3.32c1,3.3,2.88,8.82,3.63,9.57,1.18,1.18,18.95,10,22.5,9.27,2.87-.57,7.77-11.65,9.42-15.87a.5.5,0,0,1,.53-.31c.88.12,3.37.27,4.33-.56a1,1,0,0,0,.37-.83c0-2-2.69-9.12-4.1-12.6a.49.49,0,0,1,.09-.53c.05,0,4.76-5.17,4.76-9.06v-8.19l-22.75-1.78c.77,1.67,2.18,5.07,1.5,6.43s-9.82,4.67-13.12,5.78c0,1.56-.16,6-1.27,7.14s-4.24,2-4.37,2a.48.48,0,0,1-.4-.07.49.49,0,0,1-.21-.34c0-.18-.75-4.46-4.4-4.46a5.71,5.71,0,0,0-4.58,3,8.48,8.48,0,0,0-.24,8.33,5.24,5.24,0,0,0,7.58,2.8A.54.54,0,0,1,225.51,187.39Z" style="fill:#263238"></path><path d="M259.12,177.65c-.3,1.32-1.05,2.28-1.67,2.13s-.9-1.32-.6-2.65,1-2.27,1.68-2.13S259.42,176.32,259.12,177.65Z" style="fill:#263238"></path><path d="M262,175a1,1,0,0,1-.7-.3c-3-3-5.83-1.45-5.95-1.39a1,1,0,0,1-1-1.75c1.47-.82,5.09-1.52,8.34,1.73a1,1,0,0,1,0,1.41A1,1,0,0,1,262,175Z" style="fill:#263238"></path><path d="M257.79,193.26a.5.5,0,0,1-.44-.27c-2-3.87-6.88-3.33-7.08-3.3a.5.5,0,0,1-.56-.44.51.51,0,0,1,.44-.56c.23,0,5.72-.66,8.09,3.84a.5.5,0,0,1-.21.67A.53.53,0,0,1,257.79,193.26Z" style="fill:#263238"></path><polygon points="271.63 265.73 268.06 259.93 277.65 258.81 271.63 265.73" style="fill:#263238"></polygon><path d="M271.63,266.23h0a.56.56,0,0,1-.39-.24l-3.57-5.8a.48.48,0,0,1,0-.48.48.48,0,0,1,.39-.28l9.6-1.12a.51.51,0,0,1,.5.27.5.5,0,0,1-.07.56l-6,6.92A.52.52,0,0,1,271.63,266.23Zm-2.73-5.9,2.8,4.56,4.73-5.43Z" style="fill:#263238"></path><path d="M266.61,257.82l6.8,4.34s1.79-3.13.45-9.82-3.79-8.7-3.79-8.7l-3.13.44Z" style="fill:#fff"></path><path d="M273.41,262.66a.5.5,0,0,1-.26-.08l-6.81-4.33a.49.49,0,0,1-.23-.44l.33-13.74a.5.5,0,0,1,.43-.48l3.13-.45a.49.49,0,0,1,.38.11c.11.09,2.61,2.2,4,9s-.43,10-.5,10.17a.51.51,0,0,1-.32.23Zm-6.3-5.11,6.08,3.87c.4-1.09,1.17-4,.18-9-1.09-5.45-2.94-7.72-3.47-8.27l-2.47.35Z" style="fill:#263238"></path><path d="M330.09,229.13c1.56,2.23,2.9,10.71,1.56,15.18s-6.24,7.81-17.18,11.82-42.84,9.6-42.84,9.6.22-4.24.67-11.61-3.57-10.71-3.57-10.71,8.7-4.68,15.84-8.25,28.56-13.39,28.56-13.39" style="fill:#652B32"></path><path d="M271.63,266.23a.51.51,0,0,1-.33-.13.48.48,0,0,1-.17-.4s.22-4.24.67-11.61c.42-7-3.36-10.26-3.39-10.29a.5.5,0,0,1-.18-.44.51.51,0,0,1,.26-.39c.09,0,8.79-4.73,15.86-8.26s28.36-13.3,28.57-13.4a.52.52,0,0,1,.67.25.5.5,0,0,1-.25.66c-.21.1-21.49,9.86-28.55,13.38-6,3-13.14,6.82-15.23,7.93,1.11,1.22,3.6,4.63,3.24,10.62-.35,5.71-.56,9.54-.64,11,4.5-.8,32.21-5.81,42.14-9.46,10.86-4,15.59-7.21,16.87-11.5s0-12.67-1.49-14.74a.5.5,0,1,1,.82-.57c1.62,2.31,3,10.9,1.63,15.6s-6.29,8-17.49,12.15c-10.85,4-42.61,9.56-42.93,9.62Z" style="fill:#263238"></path><path d="M244.18,248.55s0,4.91-.89,6.47a2.56,2.56,0,0,0,1.34,3.79c1.56.67,5.58,2.68,6.69,3.12s4.24.45,2.9-2.23-6.91-8.25-6.91-8.25Z" style="fill:#fff"></path><path d="M252.65,262.65a4.3,4.3,0,0,1-1.51-.25c-.59-.24-1.92-.87-3.32-1.54s-2.64-1.27-3.39-1.59a3.25,3.25,0,0,1-1.89-1.94,3.09,3.09,0,0,1,.32-2.56c.67-1.19.82-4.9.82-6.22a.51.51,0,0,1,.3-.46.49.49,0,0,1,.54.09l3.13,2.9c.24.24,5.66,5.68,7,8.4.66,1.31.34,2.07,0,2.48A2.69,2.69,0,0,1,252.65,262.65Zm-8-13c0,1.6-.25,4.39-.94,5.59a2.09,2.09,0,0,0-.23,1.75,2.27,2.27,0,0,0,1.34,1.34c.77.33,2.12,1,3.42,1.61s2.7,1.29,3.26,1.51a2.71,2.71,0,0,0,2.39-.18c.3-.33.1-.92-.12-1.36-1.29-2.58-6.77-8.07-6.83-8.13Z" style="fill:#263238"></path><path d="M262.24,259.35s-13.9-4.17-14.94-4.17-4.17-5.56-4.52-7c-.23-.93,2-6.22,3.54-9.62a5.57,5.57,0,0,1,4.45-3.24h0l17,6.6s4,4.15,4,6.93a20.81,20.81,0,0,1-3.61,10.1C266.41,261.09,262.24,259.35,262.24,259.35Z" style="fill:#fff"></path><path d="M265.51,260.53a10,10,0,0,1-3.44-.71c-5.31-1.59-14-4.12-14.77-4.14-1.57,0-4.76-6.34-5-7.33-.08-.34-.31-1.25,3.58-9.94a6.07,6.07,0,0,1,4.85-3.54.85.85,0,0,1,.23,0l17,6.61a.44.44,0,0,1,.18.12c.17.17,4.1,4.33,4.1,7.27a21.34,21.34,0,0,1-3.73,10.42A3.78,3.78,0,0,1,265.51,260.53Zm-18.18-5.85c1,0,12.72,3.49,15,4.19l.05,0s3.86,1.57,5.33-.21a20.38,20.38,0,0,0,3.5-9.78c0-2.35-3.21-5.92-3.75-6.5l-16.8-6.52a5.08,5.08,0,0,0-3.93,2.94c-3.52,7.87-3.55,9.12-3.51,9.29.36,1.48,3.27,6.34,4.06,6.57Z" style="fill:#263238"></path><path d="M264.18,260.07a11.35,11.35,0,0,1-2-.23.5.5,0,1,1,.2-1,6.29,6.29,0,0,0,2.66.1c.54-.42,1.84-4.93,1.9-6.58a8.28,8.28,0,0,0-1.5,1.41.5.5,0,0,1-.76-.65c1.22-1.42,2.13-2,2.73-1.81.2.07.53.29.53.94,0,1.31-1.28,7-2.46,7.59A3,3,0,0,1,264.18,260.07Z" style="fill:#263238"></path><path d="M250,256a.49.49,0,0,1-.47-.34,65.4,65.4,0,0,1-2-7.3c0-.91,3.94-8.58,5.63-11.83a.5.5,0,0,1,.89.46c-2.61,5-5.43,10.71-5.52,11.4a66.69,66.69,0,0,0,2,7,.51.51,0,0,1-.32.63A.41.41,0,0,1,250,256Z" style="fill:#263238"></path><path d="M254.45,257.08a.49.49,0,0,1-.49-.4,14.37,14.37,0,0,1,0-4.88c.45-2.47,4.54-12.61,4.71-13a.5.5,0,0,1,.93.38c-.05.1-4.23,10.47-4.66,12.84a13.48,13.48,0,0,0,0,4.5.5.5,0,0,1-.4.59Z" style="fill:#263238"></path><path d="M261.36,259.31a.48.48,0,0,1-.44-.28,13.41,13.41,0,0,1-1.39-4.91c0-2.05,4.24-12,4.72-13.13a.5.5,0,1,1,.92.39c-1.87,4.36-4.64,11.35-4.64,12.74a12.94,12.94,0,0,0,1.28,4.47.51.51,0,0,1-.22.67A.59.59,0,0,1,261.36,259.31Z" style="fill:#263238"></path><path d="M274.31,230.53a.5.5,0,0,1-.21-.05.51.51,0,0,1-.25-.67c4.17-9,7.3-24.93,7.33-25.09a.5.5,0,1,1,1,.19c0,.16-3.18,16.23-7.4,25.33A.49.49,0,0,1,274.31,230.53Z" style="fill:#263238"></path><path d="M273,237.67a.45.45,0,0,1-.25-.07.5.5,0,0,1-.19-.68c2.19-3.95,7.51-16.12,7.57-16.24a.49.49,0,0,1,.65-.26.49.49,0,0,1,.26.66c-.22.5-5.39,12.34-7.6,16.33A.53.53,0,0,1,273,237.67Z" style="fill:#263238"></path></g><g id="freepik--character-5--inject-33"><path d="M334.94,407.55c0-1-14.24-82.66-13.2-86.12s14.16-16.86,14.16-16.86l24.92-17.31,12.46-2.42s15.23,13.84,21.46,31.5S406,375.49,406,375.49l24.52,28.29" style="fill:#fff"></path><path d="M334.94,408.05a.51.51,0,0,1-.5-.49c0-.42-1-6-2.15-13.06-5.73-34.11-11.78-70.71-11-73.22,1.06-3.54,13.74-16.51,14.28-17.06l25-17.37a.52.52,0,0,1,.19-.08l12.46-2.42a.48.48,0,0,1,.43.12c.16.14,15.4,14.13,21.6,31.7,6,17,10.9,56.33,11.24,59.11l24.42,28.17a.49.49,0,0,1-.05.7.51.51,0,0,1-.71,0L405.6,375.81a.42.42,0,0,1-.12-.26c-.05-.42-5.07-41.65-11.21-59.05-5.75-16.29-19.41-29.49-21.15-31.12L361,287.73,336.18,305c-3.55,3.64-13.14,13.85-14,16.59-.75,2.49,7.52,51.74,11,72.77,1.64,9.75,2.17,12.93,2.17,13.21A.5.5,0,0,1,334.94,408.05Z" style="fill:#263238"></path><line x1="351.91" y1="325.83" x2="356.94" y2="410.06" style="fill:#fff"></line><path d="M356.94,410.56a.5.5,0,0,1-.5-.47l-5-84.23a.5.5,0,0,1,.47-.53.47.47,0,0,1,.53.46l5,84.24a.5.5,0,0,1-.47.53Z" style="fill:#263238"></path><path d="M322.4,241.92s-5.19,6.58-4.15,10.38,1,5.2-1,8.31-6.58,5.19-4.16,6.92a12.1,12.1,0,0,0,4.5,2.08s.7,14.54,3.81,15.23,12.81-1.39,12.81-1.39l5.88,11.08,22.84-11.08-2.07-11.07s10.38-9.69,11.77-20.42-13.16-24.58-27-26S319.28,229.11,322.4,241.92Z" style="fill:#fff"></path><path d="M340.05,295a.5.5,0,0,1-.44-.27L333.9,284c-1.84.38-9.78,1.94-12.65,1.31-3.17-.71-4-12.14-4.18-15.32a13,13,0,0,1-4.31-2.07,1.89,1.89,0,0,1-.9-1.4c-.07-1.11,1-2.16,2.34-3.38a16.62,16.62,0,0,0,2.59-2.83c2-3,2-4.25,1-7.89s3.22-9.49,4.1-10.64c-1-4.4-.29-8.07,2.16-10.89,3.85-4.43,11.73-6.4,21.62-5.41,8.1.81,17,5.92,22.61,13,3.65,4.6,5.36,9.4,4.83,13.52-1.3,10.09-10.22,19.08-11.72,20.53l2,10.81a.49.49,0,0,1-.28.54L340.27,295A.59.59,0,0,1,340.05,295ZM334.17,283a.5.5,0,0,1,.44.27l5.66,10.65,22.06-10.7-2-10.7a.47.47,0,0,1,.15-.46c.1-.09,10.27-9.69,11.61-20.12.5-3.85-1.15-8.38-4.63-12.76-5.47-6.89-14.08-11.85-21.92-12.63-9.42-.95-17.18.95-20.76,5.06-2.28,2.62-2.91,6.06-1.9,10.24a.48.48,0,0,1-.09.43c-.05.06-5,6.42-4.06,9.94,1.07,3.94,1.06,5.47-1.11,8.72a17.91,17.91,0,0,1-2.74,3c-1,1-2.07,1.95-2,2.58,0,.08,0,.32.48.66a11.9,11.9,0,0,0,4.3,2,.49.49,0,0,1,.41.47c.28,5.87,1.53,14.34,3.42,14.76,3,.66,12.5-1.37,12.59-1.39Z" style="fill:#263238"></path><path d="M322.5,258.31c0,1.07-.46,1.94-1,1.94s-1-.87-1-1.94.45-1.94,1-1.94S322.5,257.24,322.5,258.31Z" style="fill:#263238"></path><path d="M323.72,256.46a.51.51,0,0,1-.48-.35c-.27-.86-.65-1.38-1.14-1.54a2.06,2.06,0,0,0-1.55.36.5.5,0,1,1-.6-.8,2.58,2.58,0,0,1,4.25,1.68.51.51,0,0,1-.33.63Z" style="fill:#263238"></path><path d="M319.94,274.21a2.84,2.84,0,0,1-1.88-.75.51.51,0,0,1,0-.71.5.5,0,0,1,.71,0,1.75,1.75,0,0,0,1.9.3.5.5,0,0,1,.65.26.5.5,0,0,1-.26.66A2.86,2.86,0,0,1,319.94,274.21Z" style="fill:#263238"></path><path d="M322.4,241.92s8.31-4.85,11.07-1-5.53,7.62-2.42,10.73,13.15,12.46,15.58,15.58,7.61,8.65,14.19,5.19,14.88-16.62,13.84-23.19-7.27-17.65-20.07-22.15-21.46-5.89-28,0S319.63,235.34,322.4,241.92Z" style="fill:#fff"></path><path d="M356.63,274c-3,0-6.57-1.55-10.4-6.48-1.72-2.21-7.42-7.69-11.59-11.7-1.64-1.58-3.07-2.95-3.94-3.83-1.85-1.85-.34-3.9,1-5.71,1.54-2.09,2.47-3.57,1.37-5.07-2.47-3.41-10.34,1.13-10.42,1.17a.49.49,0,0,1-.41,0,.44.44,0,0,1-.3-.28c-2.8-6.64-2.58-9.31,4.28-15.45s15.61-4.64,28.53-.1c13.09,4.6,19.37,16,20.41,22.55,1.1,7-7.6,20.29-14.11,23.71A9.4,9.4,0,0,1,356.63,274Zm-26.51-35.05a4.37,4.37,0,0,1,3.76,1.67c1.61,2.21,0,4.36-1.37,6.25s-2.29,3.24-1.1,4.42c.87.87,2.29,2.23,3.93,3.81,4.18,4,9.92,9.54,11.68,11.81,4.47,5.74,9,7.44,13.57,5.06,6.11-3.22,14.61-16.17,13.58-22.67-1-6.31-7.08-17.31-19.75-21.76s-21.11-5.85-27.54-.1-6.63,8-4.23,13.8C323.9,240.54,327.24,238.92,330.12,238.92Z" style="fill:#263238"></path><path d="M341.09,261.3s6.23-8,9.34-3.8,0,10.73-3.46,12.46a7.75,7.75,0,0,1-6.92-.35" style="fill:#fff"></path><path d="M344,271.15a9,9,0,0,1-4.21-1.11.5.5,0,1,1,.52-.86,7.31,7.31,0,0,0,6.44.33,9.37,9.37,0,0,0,4.23-6,6.77,6.77,0,0,0-1-5.71,2.22,2.22,0,0,0-1.82-1h0c-2.89,0-6.66,4.77-6.7,4.82a.5.5,0,1,1-.78-.62c.16-.21,4.1-5.2,7.48-5.2h0a3.21,3.21,0,0,1,2.61,1.41,7.68,7.68,0,0,1,1.12,6.53,10.29,10.29,0,0,1-4.75,6.67A7,7,0,0,1,344,271.15Z" style="fill:#263238"></path><path d="M365,277.92s-26.65,13.15-29.07,17-2.85,13.34-2.85,13.34,16-10.23,23.61-14.73,16.62-8.65,16.62-8.65Z" style="fill:#fff"></path><path d="M333.05,308.72a.57.57,0,0,1-.25-.06.53.53,0,0,1-.25-.46c0-.39.46-9.72,2.93-13.59s28.18-16.6,29.27-17.14a.48.48,0,0,1,.54.06l8.31,6.93a.46.46,0,0,1,.17.44.5.5,0,0,1-.28.39c-.09,0-9.07,4.2-16.57,8.63s-23.44,14.62-23.6,14.72A.43.43,0,0,1,333.05,308.72Zm31.85-30.21c-7.59,3.76-26.68,13.65-28.58,16.63s-2.52,9.63-2.71,12.13c3.39-2.15,16.26-10.34,22.8-14.21,6.32-3.73,13.66-7.26,15.94-8.34Z" style="fill:#263238"></path><path d="M370.16,237.77s14.89-10.39,29.77-1.73,5.88,27,3.11,31.84-2.76,10.73,3.81,14.54,8.66,16.61,2.08,22.49-17.31,8-16.27,11.43,8.65,2.76,6.58,6.57-8.66,6.23-15.92,3.46-6.93-10.73-3.12-15.92,2.77-6.57-7.61-13.5-7.62-15.57-1-23.19,10-18.69,3.11-23.19S365,242.61,370.16,237.77Z" style="fill:#fff"></path><path d="M389.6,328.08a18.12,18.12,0,0,1-6.46-1.24,8.93,8.93,0,0,1-5.71-5.86c-1-3.34-.08-7.49,2.37-10.82,1.58-2.15,2.09-3.37,1.89-4.5-.36-2-3.06-4.07-9.38-8.29-4.16-2.78-6.52-6-7-9.67-.58-4.27,1.4-9.07,5.88-14.26,4.73-5.49,7.36-12.11,6.68-16.88a7.64,7.64,0,0,0-3.46-5.57c-3.69-2.39-7.13-5-7.4-8.07-.16-1.79.77-3.59,2.83-5.52l.06,0c.15-.11,15.31-10.47,30.3-1.76,15.63,9.09,5.49,28.69,3.3,32.53-3.16,5.53-1.81,10.71,3.62,13.85,3.35,1.94,5.74,6.2,6.25,11.11s-1,9.42-4.09,12.2-6.9,4.61-10,6.16c-3.51,1.74-6.54,3.24-6.09,4.74.4,1.32,2,2,3.59,2.61s2.85,1.14,3.25,2.27a2.51,2.51,0,0,1-.3,2.08C398.12,326,394.32,328.08,389.6,328.08Zm-19.12-89.92c-1.81,1.69-2.62,3.22-2.49,4.67.18,2.09,2.26,4.28,6.95,7.32a8.61,8.61,0,0,1,3.9,6.27c.71,5-2,12-6.91,17.67-4.29,5-6.19,9.5-5.65,13.48.46,3.34,2.67,6.36,6.58,9,6.34,4.22,9.38,6.48,9.81,8.94.29,1.64-.57,3.23-2.07,5.27-2.26,3.09-3.11,6.9-2.21,9.95a8,8,0,0,0,5.1,5.21c6.93,2.63,13.34.37,15.31-3.24a1.56,1.56,0,0,0,.24-1.26c-.25-.71-1.43-1.18-2.68-1.68-1.71-.69-3.64-1.47-4.18-3.25-.69-2.31,2.53-3.91,6.61-5.93,3.24-1.6,6.91-3.42,9.81-6s4.23-6.77,3.75-11.34-2.67-8.57-5.75-10.35c-6-3.46-7.46-9.15-4-15.22,3-5.19,11.51-22.76-2.93-31.16C385.55,228.25,371.2,237.67,370.48,238.16Z" style="fill:#263238"></path></g><g id="freepik--character-4--inject-33"><path d="M265.23,252.35s-8.35,5.14-11.57,11.57-2.57,11.89-1.61,13.82-1.92,5.15-3.53,7.4-3.54,3.53-1.93,5.14,2.89,3.21,2.89,3.21,0,13.83,1.93,14.47,12.22-1.29,12.22-1.29l5.14,11.25,28.61-9.64-3.54-9.64s7.08-10,8.36-21.86-.64-17-11.57-23.15S266.84,249.45,265.23,252.35Z" style="fill:#fff"></path><path d="M268.77,318.42a.48.48,0,0,1-.45-.29l-5-10.89c-2.08.38-10.23,1.81-12.08,1.19-2-.67-2.26-10.4-2.27-14.76-.34-.42-1.44-1.73-2.74-3-1.57-1.56-.42-2.95.79-4.41.35-.42.72-.87,1.08-1.38.26-.36.56-.76.87-1.17,1.47-1.94,3.3-4.37,2.63-5.7-1.11-2.23-1.6-7.86,1.6-14.27,3.09-6.17,10.63-11.07,11.66-11.71.68-1.06,2.33-1.72,3.62-2.09,5.26-1.49,14.51-1.1,22.38,3.3,10.65,5.95,13.19,11,11.83,23.63-1.18,10.92-7.26,20.34-8.3,21.88l3.45,9.4a.49.49,0,0,1-.31.64l-28.61,9.65A.44.44,0,0,1,268.77,318.42Zm-5.14-12.25a.5.5,0,0,1,.45.3l5,10.84L296.73,308l-3.35-9.16a.47.47,0,0,1,.06-.46c.07-.1,7-10,8.27-21.63,1.22-11.36-.3-16.49-11.32-22.65-7.62-4.26-16.55-4.65-21.62-3.21-1.62.46-2.74,1.09-3.1,1.73a.49.49,0,0,1-.17.18c-.09,0-8.28,5.15-11.39,11.37-3,6.05-2.59,11.41-1.61,13.38s-1,4.48-2.72,6.75c-.3.41-.6.79-.86,1.16s-.76,1-1.12,1.42c-1.34,1.63-1.71,2.23-.86,3.08a41,41,0,0,1,2.93,3.25.51.51,0,0,1,.11.31c0,7.23.73,13.64,1.59,14,1.33.43,7.88-.54,12-1.31Zm1.6-53.82h0Z" style="fill:#263238"></path><path d="M257.9,281.88c0,1.61-.61,2.92-1.36,2.92s-1.37-1.31-1.37-2.92.61-2.93,1.37-2.93S257.9,280.26,257.9,281.88Z" style="fill:#263238"></path><path d="M253.61,299l-.11,0-3.5-.78a.5.5,0,1,1,.21-1l3.51.78a.49.49,0,0,1,.38.59A.5.5,0,0,1,253.61,299Z" style="fill:#263238"></path><path d="M261.41,278.28a.5.5,0,0,1-.33-.12,8.44,8.44,0,0,0-6.59-1.84.5.5,0,0,1-.59-.39.51.51,0,0,1,.39-.59,9.31,9.31,0,0,1,7.45,2.07.49.49,0,0,1,.05.7A.48.48,0,0,1,261.41,278.28Z" style="fill:#263238"></path><path d="M372.35,434.6s-12-67.73-14.89-71.59-13.47-23.23-22.79-30.3-33.43-22.5-33.43-22.5l-36.65,15.43S249.48,342.36,247.23,344s-8.36,26.69-11.89,35-17.68,26.68-17.68,26.68l-11.78,11.51-20.24,17,8.75,8.76,43.23-19.15,21.89-21.35,7.12,24.08-.86,26.29" style="fill:#fff"></path><path d="M265.77,453.28h0a.5.5,0,0,1-.49-.52l.85-26.2-6.85-23.21L238,424.11a.33.33,0,0,1-.14.1l-43.24,19.16a.49.49,0,0,1-.55-.11l-8.76-8.75a.49.49,0,0,1-.14-.38.47.47,0,0,1,.18-.36l20.24-17,11.75-11.48c.09-.13,14.1-18.32,17.57-26.52,1.52-3.61,3.55-10.43,5.52-17,3.18-10.68,5.2-17.27,6.54-18.23,2.18-1.56,17.13-18.09,17.28-18.26a.57.57,0,0,1,.18-.12L301,309.75a.49.49,0,0,1,.47,0c.24.15,24.23,15.52,33.46,22.52,7.17,5.44,15,17.94,19.65,25.4,1.44,2.29,2.57,4.1,3.24,5,2.93,3.91,14.49,69,15,71.8a.49.49,0,0,1-.4.58.49.49,0,0,1-.58-.4c-4.14-23.39-12.57-68.4-14.8-71.38-.7-.93-1.84-2.76-3.28-5.07-4.64-7.4-12.39-19.8-19.41-25.13-8.73-6.62-30.73-20.76-33.18-22.34l-36.3,15.29c-1.28,1.41-15.16,16.73-17.37,18.31-1.13.81-3.92,10.18-6.16,17.71-2,6.62-4,13.46-5.56,17.12-3.52,8.32-17.17,26-17.75,26.79l-11.82,11.56-19.85,16.64,8.12,8.12,42.84-19,21.82-21.27a.5.5,0,0,1,.83.21l7.11,24.08a.3.3,0,0,1,0,.16l-.85,26.28A.51.51,0,0,1,265.77,453.28Z" style="fill:#263238"></path><polygon points="262.02 317.93 262.34 328.86 303.49 309.89 298.02 303.46 262.02 317.93" style="fill:#fff"></polygon><path d="M262.34,329.35a.48.48,0,0,1-.26-.07.5.5,0,0,1-.24-.41l-.32-10.93a.5.5,0,0,1,.31-.48l36-14.46a.48.48,0,0,1,.56.13l5.47,6.43a.53.53,0,0,1,.11.44.51.51,0,0,1-.28.34l-41.15,19A.52.52,0,0,1,262.34,329.35Zm.19-11.09.29,9.82,39.86-18.37-4.8-5.65Z" style="fill:#263238"></path><path d="M344.88,431.37a.51.51,0,0,1-.5-.43l-8.77-64.34a.5.5,0,0,1,1-.13l8.77,64.33a.5.5,0,0,1-.42.57Z" style="fill:#263238"></path><path d="M335,358.65a.5.5,0,0,1-.49-.44l-1.58-11.54a.5.5,0,1,1,1-.14l1.58,11.55a.51.51,0,0,1-.43.56Z" style="fill:#263238"></path><path d="M260.81,251.33S251.34,256,252.5,260s4.15,2.08,10,3.11,10,1.39,10,1.39-4.15,5.19-3.8,7.27,5.19,3.11,5.19,3.11-2.42,6.58-.69,8,5.53.69,6.92,1,2.42,8,4.85,12.12,8.8,2.66,8.8,2.66,6.08-7.51,8.5-20.32,2.77-14.88-3.46-22.84-22.39-7.36-27.58-7.36S260.81,251.33,260.81,251.33Z" style="fill:#fff"></path><path d="M291.23,299.41c-2.17,0-5.09-.55-6.63-3.18a36.61,36.61,0,0,1-2.81-7.45c-.54-1.79-1.27-4.24-1.73-4.44a10.9,10.9,0,0,0-1.9-.09c-1.74,0-3.91,0-5.21-1-1.7-1.36-.28-6.15.35-8-1.38-.36-4.7-1.43-5-3.39-.3-1.81,2.18-5.37,3.36-6.94-1.55-.16-4.93-.55-9.18-1.3a28.44,28.44,0,0,0-4.82-.39c-2.74-.05-4.73-.08-5.61-3.08-1.24-4.2,7.46-8.69,8.55-9.23.4-.25,5.55-3.27,10.73-3.27h1c6.26,0,20.93-.13,26.94,7.55,6.41,8.19,6,10.49,3.56,23.25s-8.54,20.46-8.6,20.53a.44.44,0,0,1-.27.17A12.45,12.45,0,0,1,291.23,299.41Zm-17.33-50.8h-2.6c-5,0-10.18,3.1-10.23,3.13l0,0c-2.53,1.26-8.91,5.17-8,8.07.68,2.29,1.93,2.31,4.67,2.36a29.53,29.53,0,0,1,5,.4c5.79,1,9.95,1.38,10,1.38a.5.5,0,0,1,.41.3.47.47,0,0,1-.07.51c-1.55,1.94-3.92,5.52-3.7,6.88s3.06,2.33,4.8,2.7a.49.49,0,0,1,.34.25.49.49,0,0,1,0,.41c-1,2.59-1.85,6.6-.85,7.4s3,.82,4.58.82a10.08,10.08,0,0,1,2.15.13c.94.23,1.45,1.82,2.44,5.11a34.88,34.88,0,0,0,2.72,7.23c2,3.43,7.1,2.65,8.09,2.46a49.7,49.7,0,0,0,8.29-19.95c2.4-12.67,2.76-14.61-3.36-22.44C293.22,249.06,280.63,248.61,273.9,248.61Zm-13.09,2.72h0Z" style="fill:#263238"></path><path d="M274.88,285.46s6.11-10,10.93-4.18.32,11.89-3.22,13.5a15.39,15.39,0,0,1-7.71,1" style="fill:#fff"></path><path d="M276.94,296.37a16.32,16.32,0,0,1-2.14-.13.51.51,0,0,1-.42-.57.51.51,0,0,1,.57-.42,15,15,0,0,0,7.44-.93,9.45,9.45,0,0,0,4.84-6.06,7.56,7.56,0,0,0-1.81-6.66A3.75,3.75,0,0,0,282.2,280c-3.49.25-6.86,5.68-6.9,5.74a.5.5,0,0,1-.85-.52c.15-.25,3.68-5.93,7.67-6.22a4.79,4.79,0,0,1,4.07,2,8.5,8.5,0,0,1,2,7.53,10.35,10.35,0,0,1-5.4,6.74A14.33,14.33,0,0,1,276.94,296.37Z" style="fill:#263238"></path><path d="M259.51,402.91a.49.49,0,0,1-.36-.84l15.32-16.41,7.46-10.14c-.4-1-2-5.22-4.82-11.76a.5.5,0,0,1,.26-.66.52.52,0,0,1,.66.26c3.25,7.59,4.92,12,4.93,12.06a.51.51,0,0,1-.06.48l-7.66,10.39-15.36,16.46A.49.49,0,0,1,259.51,402.91Z" style="fill:#263238"></path><path d="M272.1,390.33a.5.5,0,0,1-.23-.95c.13-.07,13.73-7.18,22.88-15.25a.51.51,0,0,1,.71,0,.51.51,0,0,1,0,.71c-9.24,8.16-22.94,15.32-23.08,15.39A.49.49,0,0,1,272.1,390.33Z" style="fill:#263238"></path><path d="M267.17,395.25a.49.49,0,0,1-.49-.42.5.5,0,0,1,.42-.57c.22,0,21.85-3.3,26.64-6a.5.5,0,0,1,.68.19.49.49,0,0,1-.19.68c-5,2.75-26.09,5.94-27,6.08Z" style="fill:#263238"></path><path d="M185.64,434.15l-9.31.55-13.68,8.76,1.65,5.47,2.73.55s2.19,5.47,3.83,5.47,6.57,2.19,6.57,2.19l9.3-4.38,7.66-9.85Z" style="fill:#fff"></path><path d="M177.43,457.64a.46.46,0,0,1-.2-.05c-1.35-.59-5.11-2.14-6.37-2.14-1.73,0-3.54-4-4.19-5.54l-2.47-.49a.5.5,0,0,1-.38-.35l-1.65-5.47a.51.51,0,0,1,.21-.56l13.68-8.76a.57.57,0,0,1,.24-.08l9.31-.55a.5.5,0,0,1,.38.15l8.76,8.75a.52.52,0,0,1,0,.66l-7.66,9.86a.45.45,0,0,1-.19.14l-9.3,4.38A.54.54,0,0,1,177.43,457.64Zm-12.74-9.14,2.44.49a.51.51,0,0,1,.37.3c1,2.49,2.58,5.16,3.36,5.16,1.56,0,5.51,1.68,6.56,2.14l9-4.23,7.32-9.41-8.29-8.28-8.95.52-13.25,8.48Z" style="fill:#263238"></path></g><g id="freepik--character-2--inject-33"><path d="M116.15,317.65a372.7,372.7,0,0,1,18.23,35.84c7.54,17.6,8.8,42.11,8.8,52.17s-6.29,27.66-6.29,27.66Z" style="fill:#fff"></path><path d="M136.89,433.82h0a.51.51,0,0,1-.45-.41L115.66,317.74a.5.5,0,0,1,.32-.56.5.5,0,0,1,.6.22,376.45,376.45,0,0,1,18.26,35.89c8.41,19.63,8.84,47.07,8.84,52.37,0,10-6.06,27.11-6.32,27.83A.5.5,0,0,1,136.89,433.82ZM117.15,320.41,137,431.33c1.59-4.75,5.64-17.7,5.64-25.67,0-5.27-.42-32.52-8.76-52A365.86,365.86,0,0,0,117.15,320.41Z" style="fill:#263238"></path><path d="M54.54,392.46c0-1-3.55-46.83-2.51-50.29s15.16-19.25,15.16-19.25l24.92-17.31,12.46-2.42S119.8,317,126,334.68s12.12,106.81,12.12,106.81" style="fill:#fff"></path><path d="M138.15,442a.5.5,0,0,1-.5-.46c-.06-.9-6-89.29-12.09-106.68-5.75-16.29-19.41-29.49-21.14-31.12l-12.11,2.35L67.52,323.29c-4.87,5.45-14.22,16.38-15,19s1.37,33.53,2.19,45.13c.24,3.33.34,4.81.34,5a.5.5,0,0,1-.5.5h0a.5.5,0,0,1-.5-.5c0-.19-.14-2.19-.33-4.95-1.41-19.83-2.93-42.93-2.16-45.48,1.06-3.53,14.69-18.8,15.27-19.45l.08-.08,24.92-17.3a.52.52,0,0,1,.19-.08l12.47-2.42a.49.49,0,0,1,.43.12c.15.14,15.39,14.13,21.59,31.7s12.09,106.05,12.15,106.94a.5.5,0,0,1-.47.53Z" style="fill:#263238"></path><path d="M53.69,260.27s-5.19,6.57-4.15,10.38,1,5.19-1,8.31-6.58,5.19-4.15,6.92A12,12,0,0,0,48.84,288s.7,14.53,3.81,15.23,12.81-1.39,12.81-1.39l5.88,11.08L94.19,301.8l-2.08-11.07s10.38-9.7,11.77-20.42-13.15-24.58-27-26S50.58,247.46,53.69,260.27Z" style="fill:#fff"></path><path d="M71.34,313.38a.5.5,0,0,1-.44-.27l-5.71-10.74c-1.84.38-9.78,1.94-12.65,1.3-3.17-.7-4-12.13-4.18-15.31a13.22,13.22,0,0,1-4.31-2.07,1.94,1.94,0,0,1-.9-1.41c-.07-1.1,1-2.15,2.34-3.37a17.41,17.41,0,0,0,2.59-2.83c2-3,2-4.25,1-7.9s3.22-9.48,4.1-10.63c-1-4.41-.29-8.07,2.16-10.89,3.86-4.43,11.74-6.4,21.62-5.41,8.1.81,17,5.91,22.61,13,3.65,4.6,5.37,9.4,4.83,13.52-1.3,10.09-10.22,19.08-11.72,20.53l2,10.81a.5.5,0,0,1-.28.54L71.56,313.33A.54.54,0,0,1,71.34,313.38ZM65.46,301.3a.5.5,0,0,1,.44.27l5.66,10.65,22.06-10.7-2-10.7a.5.5,0,0,1,.15-.46c.1-.09,10.27-9.7,11.61-20.12.5-3.85-1.14-8.39-4.63-12.77-5.47-6.88-14.07-11.84-21.92-12.63-9.42-.94-17.18,1-20.76,5.07-2.27,2.62-2.91,6.06-1.89,10.24a.51.51,0,0,1-.1.43c0,.06-5,6.42-4.06,9.94,1.07,3.94,1.06,5.47-1.11,8.72a18.3,18.3,0,0,1-2.74,3c-1,1-2.06,1.94-2,2.58,0,.08,0,.32.49.65a11.36,11.36,0,0,0,4.29,2,.5.5,0,0,1,.41.47c.28,5.88,1.53,14.35,3.42,14.77,3,.66,12.5-1.37,12.59-1.39Z" style="fill:#263238"></path><path d="M49.73,282.28c-1.84,0-3.29-2.51-3.29-5.71s1.45-5.7,3.29-5.7,3.28,2.5,3.28,5.7S51.57,282.28,49.73,282.28Zm0-10.41c-1.08,0-2.29,1.93-2.29,4.7s1.21,4.71,2.29,4.71S52,279.34,52,276.57,50.81,271.87,49.73,271.87Z" style="fill:#263238"></path><path d="M63.65,280.82h-.11l-16.71-3.75a.5.5,0,0,1,.22-1l16.71,3.76a.49.49,0,0,1,.38.59A.5.5,0,0,1,63.65,280.82Z" style="fill:#263238"></path><path d="M72.38,279.65s6.23-8,9.35-3.81,0,10.73-3.46,12.46a7.79,7.79,0,0,1-6.93-.34" style="fill:#fff"></path><path d="M75.29,289.5a9,9,0,0,1-4.21-1.11.51.51,0,0,1-.17-.69.5.5,0,0,1,.69-.17,7.31,7.31,0,0,0,6.44.33,9.37,9.37,0,0,0,4.23-6,6.77,6.77,0,0,0-.94-5.71,2.25,2.25,0,0,0-1.83-1h0c-2.89,0-6.66,4.77-6.7,4.82a.49.49,0,0,1-.7.08.5.5,0,0,1-.08-.7c.16-.21,4.11-5.2,7.49-5.2h0a3.21,3.21,0,0,1,2.62,1.4,7.74,7.74,0,0,1,1.11,6.54,10.25,10.25,0,0,1-4.75,6.67A7.1,7.1,0,0,1,75.29,289.5Z" style="fill:#263238"></path><path d="M96.26,296.26s-26.65,13.16-29.07,17-6.58,18.29-6.58,18.29S80.34,316.34,88,311.84s16.61-8.65,16.61-8.65Z" style="fill:#fff"></path><path d="M60.61,332a.46.46,0,0,1-.28-.08.5.5,0,0,1-.2-.55c.17-.6,4.2-14.6,6.64-18.42S95,296.35,96,295.82a.48.48,0,0,1,.54.06l8.31,6.92a.5.5,0,0,1-.11.84c-.09,0-9.06,4.19-16.57,8.63s-27.1,19.49-27.3,19.64A.47.47,0,0,1,60.61,332Zm35.58-35.15c-7.59,3.75-26.68,13.64-28.58,16.63s-5,12.93-6.09,16.7c4.42-3.38,19.72-15,26.18-18.78s13.66-7.26,16-8.34Z" style="fill:#263238"></path><path d="M53.69,260.27s8.31-4.85,11.08-1-5.54,7.61-2.43,10.73,13.16,12.46,15.58,15.57,7.61,8.66,14.19,5.2S107,274.11,106,267.54s-7.26-17.66-20.07-22.16-21.46-5.88-28,0S50.92,253.69,53.69,260.27Z" style="fill:#fff"></path><path d="M87.92,292.31c-3,0-6.57-1.54-10.4-6.47-1.72-2.21-7.42-7.69-11.58-11.7-1.65-1.58-3.07-2.95-3.95-3.83-1.85-1.85-.33-3.9,1-5.71,1.54-2.09,2.47-3.57,1.37-5.08-2.47-3.4-10.34,1.13-10.42,1.18a.49.49,0,0,1-.41,0,.52.52,0,0,1-.3-.28c-2.8-6.64-2.58-9.31,4.28-15.45s15.61-4.64,28.53-.1c13.09,4.6,19.38,16,20.41,22.55,1.1,7-7.6,20.28-14.11,23.71A9.52,9.52,0,0,1,87.92,292.31Zm-26.51-35a4.37,4.37,0,0,1,3.76,1.67c1.61,2.21,0,4.36-1.37,6.25s-2.28,3.23-1.1,4.42c.87.87,2.29,2.23,3.93,3.81,4.19,4,9.92,9.54,11.68,11.81,4.47,5.74,9,7.44,13.57,5,6.11-3.21,14.61-16.16,13.58-22.67-1-6.3-7.08-17.3-19.75-21.75s-21.11-5.85-27.53-.1-6.63,8-4.24,13.8C55.19,258.89,58.53,257.27,61.41,257.27Z" style="fill:#263238"></path><path d="M53.69,260.27s6.44-3.28,6.44,1.5-5.8,9.21-1.71,13.64,13.65,10.92,14.33,16.72-4.09,14.67-5.46,14.67a38.59,38.59,0,0,0-4.77.68,22.64,22.64,0,0,0,14.32,5.46c8.53,0,22.52-3.41,29.34-8.87s5.8-17.06,2.73-29.34-7.5-20.81-17.4-26.61-27.29-1.71-31.72,2.39" style="fill:#fff"></path><path d="M76.84,313.44a23,23,0,0,1-14.67-5.6.5.5,0,0,1,.25-.85,37.7,37.7,0,0,1,4.87-.69c1.11-.31,5.62-8.55,5-14.11-.47-4-5.61-8.57-9.74-12.25-1.69-1.51-3.29-2.93-4.46-4.19-2.78-3-1.37-6,0-8.94a12.48,12.48,0,0,0,1.58-5,2,2,0,0,0-.76-1.82c-1.28-.79-4,.28-4.95.76a.5.5,0,0,1-.68-.22.51.51,0,0,1,.22-.67c.4-.2,3.94-1.94,5.94-.72a2.9,2.9,0,0,1,1.23,2.67A13.32,13.32,0,0,1,59,267.24c-1.34,2.85-2.5,5.31-.17,7.83,1.13,1.23,2.71,2.64,4.38,4.12,4.48,4,9.56,8.52,10.08,12.88.59,5-2.72,12.2-4.72,14.45a1.82,1.82,0,0,1-1.24.78,29.11,29.11,0,0,0-3.64.47,22.28,22.28,0,0,0,13.19,4.67c8.73,0,22.48-3.52,29-8.76,5.55-4.44,6.36-13.6,2.56-28.83-3.38-13.51-8.35-21.13-17.17-26.3-9.4-5.51-26.64-1.82-31.13,2.33a.51.51,0,0,1-.71,0,.5.5,0,0,1,0-.71c4.79-4.42,22.39-8.27,32.32-2.45,9.07,5.32,14.18,13.12,17.63,26.92,2.46,9.85,4.84,23.65-2.91,29.85C99.78,309.83,85.74,313.44,76.84,313.44Z" style="fill:#263238"></path></g><g id="freepik--character-3--inject-33"><path d="M172.67,253.54s-9.08,5.58-12.57,12.57-2.8,12.92-1.75,15-2.09,5.59-3.84,8-3.84,3.84-2.09,5.59,3.14,3.49,3.14,3.49,0,15,2.09,15.71,13.27-1.39,13.27-1.39l5.59,12.22,31.08-10.48-3.84-10.47s7.68-10.83,9.07-23.75-.69-18.5-12.57-25.14S174.41,250.39,172.67,253.54Z" style="fill:#fff"></path><path d="M176.51,325.27a.49.49,0,0,1-.45-.29l-5.43-11.87c-2.2.4-11.13,2-13.13,1.31-2.18-.73-2.43-11.3-2.44-16-.36-.44-1.57-1.89-3-3.32-1.67-1.67-.44-3.16.87-4.74.39-.46.79-1,1.17-1.49s.61-.83,1-1.27c1.6-2.13,3.59-4.77,2.86-6.25-1.21-2.4-1.74-8.5,1.74-15.46,3.35-6.7,11.57-12,12.65-12.71.73-1.14,2.52-1.85,3.92-2.25,5.71-1.62,15.74-1.2,24.28,3.58,11.54,6.45,14.3,12,12.82,25.63-1.28,11.89-7.93,22.15-9,23.76l3.76,10.23a.53.53,0,0,1,0,.39.57.57,0,0,1-.29.26l-31.08,10.47A.45.45,0,0,1,176.51,325.27Zm-5.59-13.22a.51.51,0,0,1,.46.29l5.4,11.81L206.94,314l-3.66-10a.47.47,0,0,1,.06-.46c.07-.11,7.62-10.88,9-23.51,1.33-12.37-.33-17.95-12.32-24.65-8.29-4.63-18-5.05-23.52-3.49-1.76.5-3,1.2-3.38,1.9a.62.62,0,0,1-.18.18c-.09.06-9,5.6-12.38,12.37-3.29,6.58-2.82,12.43-1.75,14.57s-1.09,4.82-3,7.29c-.33.44-.65.86-.93,1.25-.41.57-.84,1.09-1.22,1.55-1.48,1.79-1.88,2.45-.93,3.39a46.47,46.47,0,0,1,3.18,3.54.51.51,0,0,1,.11.31c0,7.94.8,14.92,1.75,15.24,1.45.49,8.58-.58,13-1.41Zm1.75-58.51h0Z" style="fill:#263238"></path><path d="M163.52,283.94c0,1.63-.66,2.95-1.48,2.95s-1.47-1.32-1.47-2.95S161.23,281,162,281,163.52,282.31,163.52,283.94Z" style="fill:#263238"></path><rect x="163.38" y="276.06" width="1" height="8.4" transform="translate(-149.62 364.61) rotate(-74.74)" style="fill:#263238"></rect><rect x="156.52" y="302.59" width="3.68" height="1" style="fill:#263238"></rect><polygon points="159.63 400.37 131.13 423.68 136.48 436.16 157.88 424.86 159.63 400.37" style="fill:#fff"></polygon><path d="M136.48,436.66l-.17,0a.53.53,0,0,1-.29-.28l-5.35-12.48a.48.48,0,0,1,.15-.58L159.31,400a.5.5,0,0,1,.82.42l-1.75,24.5a.51.51,0,0,1-.27.41L136.72,436.6A.53.53,0,0,1,136.48,436.66Zm-4.74-12.84,5,11.64,20.67-10.91,1.65-23.06Z" style="fill:#263238"></path><path d="M131.13,423.67S121,424.94,119,426.44s-8.53,12-8.53,12a14.11,14.11,0,0,0,1.51,3l2,3,8.53,4.51,9.53-5,4.43-7.84Z" style="fill:#fff"></path><path d="M122.52,449.51a.53.53,0,0,1-.24-.06l-8.52-4.51a.49.49,0,0,1-.18-.17l-2-3a14.6,14.6,0,0,1-1.56-3.13.48.48,0,0,1,0-.42c.27-.44,6.59-10.63,8.65-12.18s11.31-2.73,12.36-2.86a.48.48,0,0,1,.52.3L136.94,436a.52.52,0,0,1,0,.44l-4.44,7.84a.55.55,0,0,1-.2.2l-9.53,5A.46.46,0,0,1,122.52,449.51Zm-8.18-5.4,8.18,4.34,9.16-4.83,4.24-7.49-5.1-11.91c-3,.4-10,1.5-11.51,2.62s-6.38,8.64-8.28,11.7a15,15,0,0,0,1.37,2.67Z" style="fill:#263238"></path><path d="M116,432l1.5,10,3.51,1.5V437a56.3,56.3,0,0,0,8-4.52" style="fill:#fff"></path><path d="M121,444a.43.43,0,0,1-.19,0l-3.51-1.5a.49.49,0,0,1-.3-.39l-1.51-10a.5.5,0,0,1,.42-.56.49.49,0,0,1,.57.42l1.47,9.75,2.55,1.1V437a.49.49,0,0,1,.31-.46,57.65,57.65,0,0,0,7.94-4.47.49.49,0,0,1,.69.13.5.5,0,0,1-.14.7,58.39,58.39,0,0,1-7.8,4.42v6.19a.5.5,0,0,1-.22.42A.46.46,0,0,1,121,444Z" style="fill:#263238"></path><polyline points="158.63 469.57 153.13 435.56 203.65 436.75 231.59 430.21 236.36 469.07" style="fill:#fff"></polyline><path d="M158.62,470.07a.49.49,0,0,1-.49-.42l-5.5-34a.53.53,0,0,1,.12-.41.58.58,0,0,1,.39-.17l50.46,1.19,27.87-6.52a.47.47,0,0,1,.4.07.5.5,0,0,1,.21.35L236.85,469a.5.5,0,0,1-.43.56.49.49,0,0,1-.56-.44l-4.7-38.3-27.4,6.41h-.12l-49.93-1.17,5.41,33.41a.51.51,0,0,1-.42.58Z" style="fill:#263238"></path><path d="M172.15,327.38l-7.73,3-.6,10.7,5.35-.59s-6.53,27.94-7.13,29.72-13.08,63.6-12.48,67.17,5.94,4.75,17.24,8.91,48.74-1.19,55.87-3.56,11.89-13.68,11.89-16.05-5.35-71.93-6.54-78.46-10.48-29.12-15.46-31.51S172.15,327.38,172.15,327.38Z" style="fill:#fff"></path><path d="M180.15,448.29c-5.62,0-10.48-.44-13.53-1.56-2-.73-3.76-1.36-5.38-1.94-7.75-2.75-11.64-4.13-12.17-7.36-.67-4,12.34-66.93,12.5-67.41.53-1.59,5.94-24.67,7-29l-4.65.52a.49.49,0,0,1-.4-.13.5.5,0,0,1-.15-.39l.59-10.7a.5.5,0,0,1,.32-.44l7.73-3h0c1.46-.53,35.7-13.12,40.81-10.68s14.52,25.2,15.73,31.87,6.55,75.79,6.55,78.55c0,2.49-4.74,14-12.23,16.52C218,444.79,196,448.29,180.15,448.29ZM169.17,340a.5.5,0,0,1,.38.17.48.48,0,0,1,.11.44c-.27,1.14-6.55,28-7.14,29.77-.16.47-13.07,63.3-12.47,66.92.44,2.66,4.15,4,11.53,6.59,1.62.58,3.41,1.21,5.39,1.94,11,4,47.87-1,55.54-3.57,6.94-2.31,11.55-13.3,11.55-15.57,0-.43-5.23-71.19-6.53-78.37-1.13-6.2-10.42-28.86-15.18-31.15-3.93-1.88-30.22,7.1-40,10.72l-7.42,2.85-.54,9.79,4.76-.53Z" style="fill:#263238"></path><polygon points="169.18 324.77 169.53 336.64 214.85 318.24 207.81 308.98 169.18 324.77" style="fill:#fff"></polygon><path d="M169.53,337.14a.57.57,0,0,1-.28-.08.5.5,0,0,1-.22-.4l-.35-11.88a.47.47,0,0,1,.31-.47l38.64-15.8a.5.5,0,0,1,.58.16l7,9.27a.48.48,0,0,1,.09.43.49.49,0,0,1-.3.33l-45.33,18.4A.39.39,0,0,1,169.53,337.14Zm.16-12,.31,10.81L214.06,318l-6.41-8.44Z" style="fill:#263238"></path><path d="M167.92,246.2a8.28,8.28,0,0,0-10.11,8.88,41.56,41.56,0,0,0,1,6.75c1.26,4.28,4.51,2.25,10.9,3.38s10.9,1.5,10.9,1.5-4.51,5.64-4.13,7.9,5.64,3.38,5.64,3.38-2.64,7.15-.76,8.65,6,.75,7.52,1.13,2.64,8.64,5.27,13.16,9.57,2.89,9.57,2.89,6.59-8.16,9.22-22.07,3-16.16-3.75-24.81-25.19-9-30.83-9A57.53,57.53,0,0,1,167.92,246.2Z" style="fill:#fff"></path><path d="M200.9,304.61c-2.35,0-5.5-.59-7.16-3.43a39.19,39.19,0,0,1-3.05-8.08c-.59-2-1.39-4.68-1.9-4.85a10.79,10.79,0,0,0-2.08-.11c-1.89,0-4.24,0-5.63-1.11-1.85-1.48-.27-6.72.41-8.68-1.47-.38-5.12-1.53-5.48-3.66s2.43-5.9,3.68-7.57c-1.64-.16-5.35-.59-10-1.42a32.91,32.91,0,0,0-5.24-.42c-3,0-5.1-.09-6-3.31a41,41,0,0,1-1.05-6.84A8.79,8.79,0,0,1,168,245.71h0a54.61,54.61,0,0,0,10.36,1.71c9,0,24.94,1.19,31.22,9.21,6.95,8.88,6.47,11.37,3.86,25.21s-9.27,22.21-9.34,22.29a.44.44,0,0,1-.27.17A13.79,13.79,0,0,1,200.9,304.61ZM166,246.48A7.81,7.81,0,0,0,158.3,255a40.65,40.65,0,0,0,1,6.64c.74,2.53,2.11,2.55,5.11,2.6a33.14,33.14,0,0,1,5.4.44c6.29,1.11,10.81,1.49,10.85,1.5a.48.48,0,0,1,.42.3.5.5,0,0,1-.07.51c-1.69,2.11-4.28,6-4,7.5s4,2.7,5.25,3a.49.49,0,0,1,.33.25.52.52,0,0,1,0,.42c-1.05,2.82-2,7.2-.91,8.08s3.27.89,5,.89a10.9,10.9,0,0,1,2.32.14c1,.25,1.56,2,2.62,5.53a38.62,38.62,0,0,0,3,7.86c2.19,3.77,7.81,2.9,8.85,2.69a54.06,54.06,0,0,0,9-21.7c2.61-13.78,3-15.89-3.66-24.41-6-7.69-21.65-8.83-30.43-8.83a56,56,0,0,1-10.59-1.73h0A7.73,7.73,0,0,0,166,246.48Z" style="fill:#263238"></path><path d="M183.14,289.5S189.78,278.68,195,285s.35,12.92-3.5,14.67a16.84,16.84,0,0,1-8.38,1" style="fill:#fff"></path><path d="M185.39,301.32a16.69,16.69,0,0,1-2.32-.15.5.5,0,0,1,.15-1,16.41,16.41,0,0,0,8.1-1,10.16,10.16,0,0,0,5.28-6.61,8.22,8.22,0,0,0-2-7.28,4.12,4.12,0,0,0-3.54-1.77c-3.81.28-7.48,6.19-7.52,6.25a.5.5,0,1,1-.85-.52c.16-.26,4-6.41,8.3-6.73a5.16,5.16,0,0,1,4.38,2.13,9.2,9.2,0,0,1,2.17,8.14,11.21,11.21,0,0,1-5.84,7.3A15.64,15.64,0,0,1,185.39,301.32Z" style="fill:#263238"></path><path d="M183.7,343.7s-.5-7,11.53-9,15.44.08,19.06,5S236.86,444.5,236.86,444.5l-.79,1.37,5.8.13-13-72.71s-8-45.64-26.07-44.64-21.57,7-25.08,15.05-4,100.8-4,100.8l6.65.14Z" style="fill:#fff"></path><path d="M241.87,446.5h0l-5.8-.13a.5.5,0,0,1-.42-.74l.69-1.22C229.78,409.85,216.7,343.8,213.89,340c-3.65-5-7-6.74-18.57-4.82s-11.14,8.24-11.12,8.51v0l-3.38,101a.5.5,0,0,1-.5.48h0l-6.65-.14a.51.51,0,0,1-.49-.51c0-3.79.54-93,4.05-101,3.78-8.62,7.59-14.35,25.51-15.35,18.26-1,26.27,43.17,26.6,45.05l13,72.71a.5.5,0,0,1-.11.42A.49.49,0,0,1,241.87,446.5Zm-5-1.11,4.35.1-12.93-72.12c-.08-.44-8-44.23-25-44.23h-.56c-17.34,1-21,6.47-24.64,14.75-3.3,7.54-3.92,92.8-4,100.11l5.66.12L183.2,343.7c0-.58-.12-7.51,12-9.52s15.71,0,19.54,5.21c3.65,5,21.88,100.93,22.66,105a.54.54,0,0,1-.06.35Z" style="fill:#263238"></path><path d="M167.65,470.07l-.4-21.56a5,5,0,0,1,4.92-5.11l69.14-1.32a5,5,0,0,1,5.09,4.46l3,26.54" style="fill:#fff"></path><path d="M249.39,473.58a.5.5,0,0,1-.49-.44l-3-26.55a4.5,4.5,0,0,0-4.49-4h-.09l-69.14,1.32a4.52,4.52,0,0,0-4.43,4.6l.4,21.56a.49.49,0,0,1-.49.51.52.52,0,0,1-.51-.49l-.4-21.56a5.52,5.52,0,0,1,5.41-5.62l69.14-1.32h.11a5.49,5.49,0,0,1,5.48,4.9l3,26.55a.5.5,0,0,1-.44.55Z" style="fill:#263238"></path><path d="M167.47,459.13l-8,4.45L151,477.2l3.79,4.16,2.67-.68s4.28,3.94,5.74,3.24,6.77-.86,6.77-.86l6.41-7.85,2.61-12Z" style="fill:#fff"></path><path d="M162.81,484.49c-1.68,0-4.38-2.26-5.49-3.26l-2.4.62a.52.52,0,0,1-.5-.15l-3.79-4.17a.5.5,0,0,1,0-.6L159,463.32a.45.45,0,0,1,.18-.18l8-4.45a.49.49,0,0,1,.41,0l11.52,4a.51.51,0,0,1,.32.58l-2.62,12a.41.41,0,0,1-.1.21l-6.4,7.86a.49.49,0,0,1-.37.18c-1.45.05-5.46.27-6.58.81A1.46,1.46,0,0,1,162.81,484.49Zm-5.35-4.31a.51.51,0,0,1,.34.14c1.95,1.78,4.49,3.47,5.18,3.15,1.39-.67,5.62-.86,6.75-.9l6.18-7.59,2.5-11.47-10.89-3.84L159.79,464l-8.17,13.19L155,480.8l2.38-.6Z" style="fill:#263238"></path><path d="M190,335.53s-7.88,7.44-7.88,15.76,9.61,53.36,9.61,53.36l-26.15,54.09,16,7.14,38-56.47-1.79-64.79" style="fill:#fff"></path><path d="M181.66,466.38a.54.54,0,0,1-.21-.05l-16-7.13a.5.5,0,0,1-.24-.67l26.08-53.94c-.74-3.46-9.59-45.19-9.59-53.3,0-8.44,7.71-15.82,8-16.13a.5.5,0,0,1,.69.73c-.08.07-7.73,7.4-7.73,15.4,0,8.17,9.5,52.81,9.6,53.26a.5.5,0,0,1,0,.32L166.28,458.5l15.2,6.75,37.71-56-1.78-64.63a.5.5,0,1,1,1,0l1.79,64.79a.52.52,0,0,1-.09.29l-38,56.47A.49.49,0,0,1,181.66,466.38Z" style="fill:#263238"></path></g></svg>